<svg width="1280" height="720" xmlns="http://www.w3.org/2000/svg" data-name="Layer 1">

 <g>
  <title>Layer 1</title>
  <path id="svg_1" fill="#f2f2f2" d="m734.48438,667.27172c-0.78106,0.66616 -1.587,1.31586 -2.40141,1.95737l-98.87145,0c-0.56742,-0.64151 -1.13525,-1.29121 -1.69424,-1.95737a109.34753,109.34753 0 0 1 -11.999,-17.641c-8.11741,-14.6227 -10.914,-33.79337 -10.914,-53.31768c0,-1.19253 0.00843,-2.385 0.03293,-3.57752c0.09076,-5.47737 0.39515,-10.96291 0.84732,-16.358c0.08232,-0.93757 0.16465,-1.86691 0.255,-2.79625c0.73207,-7.739 1.7601,-15.27235 2.92787,-22.31229c0.14778,-0.89646 0.296,-1.78469 0.45218,-2.66469a365.995,365.995 0 0 1 9.55665,-41.42544s0.13171,0.03293 0.38631,0.09869c0.73207,0.20561 2.48373,0.69086 5.05822,1.45571c7.089,2.1054 20.404,6.34913 35.75893,12.6571c0.83889,0.33717 1.68581,0.6908 2.54116,1.05267a283.26673,283.26673 0 0 1 37.61742,18.89113c0.74853,0.45232 1.48863,0.91288 2.22873,1.37343l0,0.06581l-1.61994,52.44587l14.47472,-43.6624q4.42855,3.3678 8.46276,6.98236c0.7401,0.65793 1.4802,1.33232 2.19581,2.03141a81.02719,81.02719 0 0 1 15.46139,19.28578c21.65444,39.0404 12.56684,67.74292 -10.75736,87.41531z"/>
  <path id="svg_2" fill="#fff" d="m720.54455,669.22909l-2.63191,0c-0.01646,-0.64974 -0.041,-1.29944 -0.08232,-1.95737c-1.06056,-19.72991 -9.52332,-41.51594 -21.04567,-62.54524c-0.41122,-0.7649 -0.83046,-1.54616 -1.2746,-2.31106c-5.59272,-10.00064 -11.82674,-19.78749 -18.266,-29.08909c-0.49353,-0.72374 -1.00353,-1.45566 -1.51353,-2.17939c-8.56958,-12.22943 -17.41866,-23.546 -25.41278,-33.20944c-0.5594,-0.69086 -1.13485,-1.36525 -1.70228,-2.03141c-11.85124,-14.21144 -21.63,-24.56577 -25.55293,-28.62854c-0.58389,-0.60035 -1.03606,-1.06091 -1.34848,-1.38166c-0.28793,-0.31253 -0.46061,-0.477 -0.49354,-0.5099l0.92121,-0.92111l0.008,-0.02465l0.93768,-0.92116c0.03293,0.04116 0.60035,0.58394 1.60348,1.62843c0.84732,0.86354 2.00666,2.07248 3.42984,3.58576c4.96747,5.26352 13.18326,14.21967 22.69052,25.57733c0.551,0.658 1.11838,1.34055 1.68581,2.02317c6.489,7.83772 13.52058,16.71987 20.48668,26.26819q2.62749,3.60219 5.09918,7.14686c0.518,0.72373 1.028,1.44747 1.52116,2.17121q10.44915,15.075 18.24992,28.99863l1.29909,2.32743c13.25755,24.17925 20.39633,45.59512 21.31754,64.02564c0.03256,0.65793 0.05747,1.30763 0.07393,1.95737z"/>
  <path id="svg_3" fill="#fff" d="m665.32697,519.46586c-0.46863,0.64975 -0.9457,1.29121 -1.44727,1.9245a70.24156,70.24156 0 0 1 -13.06841,12.92023c-0.71561,0.52636 -1.44767,1.06919 -2.19581,1.5955a72.0404,72.0404 0 0 1 -6.33281,3.94767a70.82539,70.82539 0 0 1 -29.16308,8.75054c-0.32889,0.03293 -0.66622,0.05757 -0.9951,0.074c-0.14818,0.88 -0.28793,1.76 -0.44414,2.65641c0.32888,-0.01642 0.65777,-0.03288 0.98706,-0.06576a73.30553,73.30553 0 0 0 30.89829,-9.10423a75.17819,75.17819 0 0 0 6.75206,-4.22726c0.7401,-0.51813 1.46373,-1.06091 2.17934,-1.60374a73.267,73.267 0 0 0 13.92376,-13.89073c0.47707,-0.63323 0.9457,-1.27474 1.40631,-1.91621c-0.85535,-0.36183 -1.68581,-0.71546 -2.5002,-1.06092z"/>
  <path id="svg_4" fill="#fff" d="m704.93498,539.47543c-0.28792,0.625 -0.59232,1.24186 -0.89671,1.85868a70.84226,70.84226 0 0 1 -25.95531,28.4147c-0.77343,0.48525 -1.55449,0.954 -2.35242,1.39813c-0.23853,0.1398 -0.49313,0.28783 -0.73167,0.41944a71.27838,71.27838 0 0 1 -65.25933,2.0149c-0.247,-0.1151 -0.4855,-0.23026 -0.724,-0.34541c-0.09035,0.93758 -0.17267,1.87515 -0.23813,2.82091c0.2301,0.10692 0.46864,0.22207 0.70717,0.32075a73.88,73.88 0 0 0 66.78893,-2.50014c0.32889,-0.181 0.64974,-0.36187 0.9706,-0.55106c0.79753,-0.46056 1.587,-0.92934 2.36005,-1.40631a73.40144,73.40144 0 0 0 26.66288,-29.14667c0.32086,-0.61682 0.62525,-1.24187 0.92121,-1.87515c-0.74817,-0.47697 -1.4967,-0.95399 -2.25327,-1.42277z"/>
  <path id="svg_5" fill="#fff" d="m728.02025,556.67227c-0.13975,0.625 -0.2795,1.25009 -0.43571,1.86691a71.08037,71.08037 0 0 1 -29.7305,42.37947c-0.765,0.51814 -1.55449,1.01157 -2.344,1.49677c-0.84732,0.51 -1.69424,1.01985 -2.56605,1.49682a71.45879,71.45879 0 0 1 -84.30678,-11.1767c-0.18914,-0.17273 -0.36985,-0.35364 -0.551,-0.5346c0,1.2254 -0.008,2.43439 0.00843,3.65156c0.16425,0.15626 0.33692,0.31253 0.5096,0.46056a74.08268,74.08268 0 0 0 85.62273,9.91018c0.87182,-0.477 1.72717,-0.97045 2.55763,-1.49676c0.806,-0.477 1.58742,-0.97051 2.36848,-1.4804a73.80814,73.80814 0 0 0 30.62722,-42.67549c0.15621,-0.59217 0.31242,-1.18429 0.45217,-1.78469c-0.71515,-0.72375 -1.46369,-1.40631 -2.21222,-2.11363z"/>
  <path stroke="null" id="svg_6" fill="#fff" d="m659.0671,422.74899l-468.35551,0l0,-351.389l468.35551,0l0,351.389z"/>
  <circle id="svg_7" fill="#e6e6e6" r="18.64295" cy="126.05451" cx="304.203"/>
  <path id="svg_8" fill="#e6e6e6" d="m347.25931,113.62587a3.10716,3.10716 0 0 0 0,6.21431l226.85872,0a3.10716,3.10716 0 0 0 0,-6.21431l-226.85872,0z"/>
  <path id="svg_9" fill="#e6e6e6" d="m347.25931,132.26878a3.10716,3.10716 0 1 0 -0.01311,6.21431l143.42243,0a3.10716,3.10716 0 1 0 0,-6.21431l-143.40932,0z"/>
  <path id="svg_10" fill="#e6e6e6" d="m659.0671,422.74899l-468.35551,0l0,-351.389l468.35551,0l0,351.389zm-463.11344,-5.24207l457.87137,0l0,-340.90483l-457.87137,0l0,340.90483z"/>
  <path id="svg_11" fill="#e4e4e4" d="m216.88924,178.51907l0,209l416,0l0,-209l-416,0zm414,51.75l-101.5,0l0,-49.75l101.5,0l0,49.75zm-205,0l0,-49.75l101.5,0l0,49.75l-101.5,0zm101.5,2l0,49.75l-101.5,0l0,-49.75l101.5,0zm-103.5,-2l-101.5,0l0,-49.75l101.5,0l0,49.75zm0,2l0,49.75l-101.5,0l0,-49.75l101.5,0zm-103.5,49.75l-101.5,0l0,-49.75l101.5,0l0,49.75zm0,2l0,49.75l-101.5,0l0,-49.75l101.5,0zm2,0l101.5,0l0,49.75l-101.5,0l0,-49.75zm101.5,51.75l0,49.75l-101.5,0l0,-49.75l101.5,0zm2,0l101.5,0l0,49.75l-101.5,0l0,-49.75zm0,-2l0,-49.75l101.5,0l0,49.75l-101.5,0zm103.5,-49.75l101.5,0l0,49.75l-101.5,0l0,-49.75zm0,-2l0,-49.75l101.5,0l0,49.75l-101.5,0zm-209,-101.5l0,49.75l-101.5,0l0,-49.75l101.5,0zm-101.5,155.25l101.5,0l0,49.75l-101.5,0l0,-49.75zm310.5,49.75l0,-49.75l101.5,0l0,49.75l-101.5,0z"/>
  <path id="svg_12" fill="#6300ee" d="m387.66106,234.74654l-41.39272,-0.93718c-4.14034,-16.03871 -2.27631,-31.30987 1.0277,-45.38227l41.39252,0.93715a90.6291,90.6291 0 0 0 -1.0275,45.3823z"/>
  <polygon id="svg_13" fill="#fff" points="354.38763427734375,198.45687103271484 354.4095458984375,196.8818588256836 375.8546142578125,197.6478500366211 375.83154296875,199.22286224365234 354.38763427734375,198.45687103271484 "/>
  <polygon id="svg_14" fill="#fff" points="354.297607421875,204.7568588256836 354.31964111328125,203.18187713623047 375.76361083984375,203.94890594482422 375.7415771484375,205.52385711669922 354.297607421875,204.7568588256836 "/>
  <polygon id="svg_15" fill="#fff" points="354.20654296875,211.05684661865234 354.2296142578125,209.48189544677734 375.673583984375,210.24886322021484 375.651611328125,211.8238754272461 354.20654296875,211.05684661865234 "/>
  <polygon id="svg_16" fill="#fff" points="354.1165771484375,217.35689544677734 354.1385498046875,215.7818832397461 375.5836181640625,216.5488510131836 375.560546875,218.12389373779297 354.1165771484375,217.35689544677734 "/>
  <polygon id="svg_17" fill="#fff" points="354.026611328125,223.6568832397461 354.048583984375,222.08187103271484 375.4935302734375,222.8488998413086 375.47064208984375,224.4238510131836 354.026611328125,223.6568832397461 "/>
  <path id="svg_18" fill="#f0f0f0" d="m297.66106,350.74654l-41.39272,-0.93718c-4.14034,-16.03871 -2.27631,-31.30987 1.0277,-45.38227l41.39252,0.93715a90.6291,90.6291 0 0 0 -1.0275,45.3823z"/>
  <polygon id="svg_19" fill="#fff" points="264.3876037597656,314.45687103271484 264.4095764160156,312.88182830810547 285.8545837402344,313.64781951904297 285.8315734863281,315.22286224365234 264.3876037597656,314.45687103271484 "/>
  <polygon id="svg_20" fill="#fff" points="264.2975769042969,320.7568588256836 264.319580078125,319.18184661865234 285.7635803222656,319.9488754272461 285.7415771484375,321.5238571166992 264.2975769042969,320.7568588256836 "/>
  <polygon id="svg_21" fill="#fff" points="264.2065734863281,327.05684661865234 264.2295837402344,325.48189544677734 285.6735534667969,326.2488327026367 285.6515808105469,327.8238754272461 264.2065734863281,327.05684661865234 "/>
  <polygon id="svg_22" fill="#fff" points="264.1165771484375,333.35680389404297 264.1385803222656,331.7818832397461 285.5835876464844,332.54891204833984 285.5605773925781,334.1238327026367 264.1165771484375,333.35680389404297 "/>
  <polygon id="svg_23" fill="#fff" points="264.0265808105469,339.6568832397461 264.048583984375,338.08187103271484 285.4935607910156,338.84883880615234 285.4705810546875,340.42391204833984 264.0265808105469,339.6568832397461 "/>
  <path id="svg_24" fill="#f0f0f0" d="m513.66106,297.74654l-41.39272,-0.93718c-4.14034,-16.03871 -2.27631,-31.30987 1.0277,-45.38227l41.39252,0.93715a90.6291,90.6291 0 0 0 -1.0275,45.3823z"/>
  <polygon id="svg_25" fill="#fff" points="480.38763427734375,261.45687103271484 480.4095458984375,259.8818588256836 501.8546142578125,260.6478500366211 501.83154296875,262.22286224365234 480.38763427734375,261.45687103271484 "/>
  <polygon id="svg_26" fill="#fff" points="480.297607421875,267.7568588256836 480.31964111328125,266.18187713623047 501.7635498046875,266.9489059448242 501.7415771484375,268.52388763427734 480.297607421875,267.7568588256836 "/>
  <polygon id="svg_27" fill="#fff" points="480.20654296875,274.05684661865234 480.2296142578125,272.48189544677734 501.673583984375,273.24886322021484 501.651611328125,274.8238754272461 480.20654296875,274.05684661865234 "/>
  <polygon id="svg_28" fill="#fff" points="480.11663818359375,280.35680389404297 480.1385498046875,278.78182220458984 501.5836181640625,279.5488510131836 501.560546875,281.1238327026367 480.11663818359375,280.35680389404297 "/>
  <polygon id="svg_29" fill="#fff" points="480.02655029296875,286.65682220458984 480.048583984375,285.08187103271484 501.49365234375,285.84883880615234 501.47064208984375,287.4238510131836 480.02655029296875,286.65682220458984 "/>
  <path id="svg_30" fill="#6300ee" d="m495.66106,287.74654l-41.39272,-0.93718c-4.14034,-16.03871 -2.27631,-31.30987 1.0277,-45.38227l41.39252,0.93715a90.6291,90.6291 0 0 0 -1.0275,45.3823z"/>
  <polygon id="svg_31" fill="#fff" points="462.38763427734375,251.45687103271484 462.4095458984375,249.8818588256836 483.8546142578125,250.6478500366211 483.83154296875,252.22286224365234 462.38763427734375,251.45687103271484 "/>
  <polygon id="svg_32" fill="#fff" points="462.297607421875,257.7568588256836 462.31964111328125,256.18187713623047 483.7635498046875,256.9489059448242 483.7415771484375,258.52388763427734 462.297607421875,257.7568588256836 "/>
  <polygon id="svg_33" fill="#fff" points="462.20654296875,264.05684661865234 462.2296142578125,262.48189544677734 483.673583984375,263.24886322021484 483.651611328125,264.8238754272461 462.20654296875,264.05684661865234 "/>
  <polygon id="svg_34" fill="#fff" points="462.11663818359375,270.3568344116211 462.1385498046875,268.78182220458984 483.5836181640625,269.5488510131836 483.560546875,271.12389373779297 462.11663818359375,270.3568344116211 "/>
  <polygon id="svg_35" fill="#fff" points="462.02655029296875,276.65682220458984 462.048583984375,275.08187103271484 483.49365234375,275.84883880615234 483.47064208984375,277.4238510131836 462.02655029296875,276.65682220458984 "/>
  <path id="svg_36" fill="#6300ee" d="m648.32718,379.09615l-41.39273,-0.93718c-4.14034,-16.03871 -2.27631,-31.30987 1.02771,-45.38227l41.39251,0.93715a90.6291,90.6291 0 0 0 -1.02749,45.3823z"/>
  <polygon id="svg_37" fill="#fff" points="615.0535888671875,342.8058395385742 615.0765991210938,341.23082733154297 636.5206298828125,341.99788665771484 636.49755859375,343.57283782958984 615.0535888671875,342.8058395385742 "/>
  <polygon id="svg_38" fill="#fff" points="614.963623046875,349.1058578491211 614.985595703125,347.5309066772461 636.4305419921875,348.29784393310547 636.4076538085938,349.87279510498047 614.963623046875,349.1058578491211 "/>
  <polygon id="svg_39" fill="#fff" points="614.87255859375,355.40685272216797 614.8956298828125,353.83187103271484 636.339599609375,354.59786224365234 636.3175659179688,356.1728744506836 614.87255859375,355.40685272216797 "/>
  <polygon id="svg_40" fill="#fff" points="614.7825927734375,361.70687103271484 614.8055419921875,360.1318588256836 636.2496337890625,360.89781951904297 636.2265625,362.4728317260742 614.7825927734375,361.70687103271484 "/>
  <polygon id="svg_41" fill="#fff" points="614.692626953125,368.0068588256836 614.714599609375,366.43184661865234 636.1596069335938,367.1988754272461 636.1365966796875,368.77379608154297 614.692626953125,368.0068588256836 "/>
  <path id="svg_42" fill="#f0f0f0" d="m603.66106,242.74654l-41.39272,-0.93718c-4.14034,-16.03871 -2.27631,-31.30987 1.0277,-45.38227l41.39252,0.93715a90.6291,90.6291 0 0 0 -1.0275,45.3823z"/>
  <polygon id="svg_43" fill="#fff" points="570.3876342773438,206.45687103271484 570.4095458984375,204.8818588256836 591.8546142578125,205.6478500366211 591.83154296875,207.22286224365234 570.3876342773438,206.45687103271484 "/>
  <polygon id="svg_44" fill="#fff" points="570.297607421875,212.7568588256836 570.3196411132812,211.18187713623047 591.7635498046875,211.94890594482422 591.7415771484375,213.52385711669922 570.297607421875,212.7568588256836 "/>
  <polygon id="svg_45" fill="#fff" points="570.20654296875,219.05684661865234 570.2296142578125,217.48189544677734 591.673583984375,218.24886322021484 591.651611328125,219.8238754272461 570.20654296875,219.05684661865234 "/>
  <polygon id="svg_46" fill="#fff" points="570.1166381835938,225.35689544677734 570.1385498046875,223.7818832397461 591.5836181640625,224.5488510131836 591.560546875,226.12389373779297 570.1166381835938,225.35689544677734 "/>
  <polygon id="svg_47" fill="#fff" points="570.0265502929688,231.6568832397461 570.048583984375,230.08187103271484 591.49365234375,230.8488998413086 591.4706420898438,232.4238510131836 570.0265502929688,231.6568832397461 "/>
  <path id="svg_48" fill="#ffb6b6" d="m646.09499,345.65098a10.05579,10.05579 0 0 0 6.786,-13.84578l26.09919,-24.4093l-18.0556,-4.33922l-22.01607,23.84474a10.11028,10.11028 0 0 0 7.1865,18.74956l-0.00002,0z"/>
  <path id="svg_49" fill="#e4e4e4" d="m659.57755,325.98915l-12.17171,-17.16138l45.71846,-47.28659l10.61553,-74.53553a25.35292,25.35292 0 0 1 33.19643,-20.44981l0,0a25.37994,25.37994 0 0 1 15.92679,32.12217l-27.08463,80.35815l-66.20087,46.95299z"/>
  <polygon id="svg_50" fill="#ffb6b6" points="745.4195556640625,643.5778427124023 731.9075927734375,643.5768661499023 725.4796142578125,591.4598617553711 745.422607421875,591.4608383178711 745.4195556640625,643.5778427124023 "/>
  <path id="svg_51" fill="#2f2e41" d="m752.68856,669.23344l-9.58777,0l-1.71137,-9.052l-4.38308,9.052l-25.429,0a5.71622,5.71622 0 0 1 -3.24815,-10.42013l20.30688,-14.02466l0,-9.15125l21.35929,1.27486l2.6932,32.32118z"/>
  <polygon id="svg_52" fill="#ffb6b6" points="828.780517578125,629.8278427124023 816.91162109375,636.2858505249023 786.3546142578125,593.5798568725586 803.87158203125,584.0488510131836 828.780517578125,629.8278427124023 "/>
  <path id="svg_53" fill="#2f2e41" d="m847.42759,648.88882l-8.42164,4.58269l-5.82984,-7.133l0.47662,10.046l-22.33622,12.1544a5.71622,5.71622 0 0 1 -7.83363,-7.60025l11.13363,-22.025l-4.37405,-8.03822l19.37081,-9.08937l17.81432,27.10275z"/>
  <path id="svg_54" fill="#2f2e41" d="m751.11218,625.01907l-27.92362,0l0,-99.43457l-17.28711,-64.82617a371.10613,371.10613 0 0 1 -9.709,-142.30127l0.02417,-0.19482l0.15015,-0.126c0.44385,-0.373 44.68872,-36.957 72.67529,-8.9707c18.864,18.86425 1.13843,86.6958 0.14649,90.41894l0,116.93459l-18.07637,108.5z"/>
  <path id="svg_55" fill="#e4e4e4" d="m687.68856,336.51907l9,-90c-1.16919,-2.4541 -18,-18 -0.40186,-45.33252l19.0083,-44.61767l35.59741,-0.55323l0.14966,0.14991a71.70284,71.70284 0 0 1 19.6482,64.894l-10.48926,52.44727l9.08838,36.354l-81.60083,26.65824z"/>
  <polygon id="svg_56" fill="#2f2e41" points="734.4535522460938,526.0978622436523 791.817626953125,606.7848129272461 813.8225708007812,591.1398544311523 765.9136352539062,492.6888656616211 734.4535522460938,526.0978622436523 "/>
  <circle id="svg_57" fill="#ffb6b6" r="32.87" cy="114.62931" cx="729.7673"/>
  <polygon id="svg_58" opacity="0.1" points="721.6885986328125,233.51888275146484 730.6885986328125,287.51888275146484 721.6885986328125,332.51888275146484 703.6885986328125,332.51888275146484 711.87060546875,287.51888275146484 721.6885986328125,233.51888275146484 "/>
  <path id="svg_59" fill="#ffb6b6" d="m730.27518,378.88415a10.05579,10.05579 0 0 0 -0.53235,-15.41014l11.5323,-33.82285l-17.97207,4.67314l-8.196,31.40231a10.11027,10.11027 0 0 0 15.16812,13.15754z"/>
  <path stroke="null" id="svg_60" fill="#e4e4e4" d="m732.91218,355.18997l-18.81836,-9.40918l18.06936,-63.24316l-25.729,-70.75489a25.35292,25.35292 0 0 1 19.658,-33.67138l0,0a25.38,25.38 0 0 1 29.17523,20.83979l13.94117,83.646l-36.2964,72.59282z"/>
  <path id="svg_61" fill="#cacaca" d="m991.90877,668.03909a1.18663,1.18663 0 0 1 -1.18994,1.19l-647.29,0a1.19,1.19 0 1 1 0,-2.38l647.29,0a1.193,1.193 0 0 1 1.18994,1.19z"/>
  <path id="svg_62" fill="#2f2e41" d="m857.60589,113.02207c-4.147,6.73212 -12.93122,9.69989 -20.72236,8.35193c-7.79113,-1.3479 -14.56121,-6.37658 -19.56158,-12.50146c-5.00043,-6.12494 -8.45929,-13.33454 -11.8631,-20.47119c-3.40381,-7.13672 -6.84692,-14.35181 -11.82226,-20.497c-4.97535,-6.14527 -11.70966,-11.21259 -19.48957,-12.624c-4.23407,-0.76812 -9.02972,-0.261 -12.11914,2.73444a11.80248,11.80248 0 0 0 -3.2381,8.3313a8.70266,8.70266 0 0 0 -11.58221,8.63678c-0.11523,-0.0022 -0.22913,-0.00983 -0.34436,-0.00983c-14.49615,-8.24164 -36.4989,-3.45392 -36.4989,5.54608c-7.9541,0 -17.67578,7.85529 -17.67578,19.78363l0,0.00006c16.44848,0 26.12823,21.07471 16.52612,36.18561a103.28775,103.28775 0 0 1 -8.18018,11.0307l20.56871,0a17.13739,17.13739 0 0 0 3.01819,-8.37134a38.50432,38.50432 0 0 1 1.34637,8.37134s56.18494,7.23975 41.68341,-48.76294a5.868,5.868 0 0 0 2.71784,-0.82373c2.18976,-1.31976 3.38232,-4.111 3.59112,-6.9433q0.813,0.21735 1.62116,0.43366c3.86566,1.04352 7.88092,2.39563 10.53418,5.39441c4.48419,5.06817 3.54095,12.76068 5.16919,19.3291c1.96362,7.92108 7.83789,14.32794 14.36352,19.22845c7.01123,5.26514 15.20142,9.26526 23.93006,10.09559c8.7287,0.83032 18.01672,-1.824 24.06482,-8.17218s8.15414,-16.57463 3.96285,-24.27611z"/>
 </g>
</svg>