<svg width="512" height="512" xmlns="http://www.w3.org/2000/svg">

 <g>
  <title>Layer 1</title>
  <path id="svg_1" fill="#E4EAF6" d="m406.069,105.931c-14.626,0 -26.483,-11.857 -26.483,-26.483l0,-79.448l-238.345,0c-14.626,0 -26.483,11.857 -26.483,26.483l0,61.793l220.69,0c9.751,0 17.655,7.905 17.655,17.655l0,123.586c0,9.75 -7.904,17.655 -17.655,17.655l-220.69,0l0,238.345c0,14.626 11.857,26.483 26.483,26.483l317.793,0c14.626,0 26.483,-11.857 26.483,-26.483l0,-379.586l-79.448,0zm-158.897,344.276l-8.828,0c-14.603,0 -26.483,-11.88 -26.483,-26.483l0,-26.483c0,-4.871 -3.961,-8.828 -8.828,-8.828c-4.875,0 -8.828,-3.948 -8.828,-8.828c0,-4.879 3.953,-8.828 8.828,-8.828c4.866,0 8.828,-3.957 8.828,-8.828l0,-26.483c0,-14.603 11.88,-26.483 26.483,-26.483l8.828,0c4.875,0 8.828,3.948 8.828,8.828c0,4.879 -3.953,8.828 -8.828,8.828l-8.828,0c-4.866,0 -8.828,3.957 -8.828,8.828l0,26.483c0,6.776 -2.56,12.966 -6.759,17.655c4.199,4.69 6.759,10.879 6.759,17.655l0,26.483c0,4.871 3.961,8.828 8.828,8.828l8.828,0c4.875,0 8.828,3.948 8.828,8.828c0,4.88 -3.953,8.828 -8.828,8.828zm23.923,-29.043c-0.884,0.793 -1.854,1.414 -2.914,1.854s-2.207,0.706 -3.353,0.706c-1.151,0 -2.297,-0.267 -3.358,-0.707c-1.056,-0.439 -2.03,-1.06 -2.91,-1.854c-1.681,-1.681 -2.56,-3.887 -2.56,-6.268c0,-2.293 0.97,-4.595 2.56,-6.268c2.03,-2.035 5.117,-3 8.03,-2.388c0.53,0.095 1.06,0.267 1.59,0.534c0.53,0.172 1.06,0.439 1.59,0.793c0.439,0.267 0.879,0.707 1.323,1.06c1.587,1.673 2.56,3.975 2.56,6.268c0.002,2.382 -0.882,4.588 -2.558,6.27zm35.311,0c-0.884,0.793 -1.854,1.414 -2.914,1.854c-1.06,0.44 -2.207,0.706 -3.353,0.706c-1.151,0 -2.297,-0.267 -3.358,-0.707c-1.056,-0.439 -2.03,-1.06 -2.91,-1.854c-1.681,-1.681 -2.56,-3.887 -2.56,-6.268c0,-2.293 0.97,-4.595 2.56,-6.268c0.879,-0.793 1.854,-1.414 2.91,-1.854c2.121,-0.974 4.59,-0.974 6.711,0c1.146,0.439 2.03,1.06 2.914,1.854c1.587,1.673 2.56,3.975 2.56,6.268c0,2.381 -0.884,4.587 -2.56,6.269zm29.042,2.56c-2.383,0 -4.59,-0.888 -6.268,-2.56c-1.681,-1.681 -2.56,-3.887 -2.56,-6.268c0,-2.293 0.97,-4.595 2.56,-6.268c0.879,-0.793 1.854,-1.414 2.91,-1.854c2.121,-0.974 4.59,-0.974 6.711,0c1.06,0.439 2.03,1.06 2.914,1.854c1.587,1.673 2.56,3.975 2.56,6.268c0,2.379 -0.884,4.586 -2.56,6.268c-1.676,1.672 -3.883,2.56 -6.267,2.56zm61.793,-35.31c-4.866,0 -8.828,3.957 -8.828,8.828l0,26.483c0,14.603 -11.88,26.483 -26.483,26.483l-8.828,0c-4.875,0 -8.828,-3.948 -8.828,-8.828c0,-4.879 3.953,-8.828 8.828,-8.828l8.828,0c4.866,0 8.828,-3.957 8.828,-8.828l0,-26.483c0,-6.776 2.56,-12.966 6.759,-17.655c-4.199,-4.69 -6.759,-10.879 -6.759,-17.655l0,-26.483c0,-4.871 -3.961,-8.828 -8.828,-8.828l-8.828,0c-4.875,0 -8.828,-3.948 -8.828,-8.828c0,-4.879 3.953,-8.828 8.828,-8.828l8.828,0c14.603,0 26.483,11.88 26.483,26.483l0,26.483c0,4.871 3.961,8.828 8.828,8.828c4.875,0 8.828,3.948 8.828,8.828c0,4.88 -3.953,8.828 -8.828,8.828z"/>
  <path id="svg_2" fill="#D2DCF0" d="m406.069,105.931l79.448,0l-105.931,-105.931l0,79.448c0,14.626 11.857,26.483 26.483,26.483z"/>
  <g id="svg_8">
   <path id="svg_9" fill="#6EAADC" d="m247.172,432.552l-8.828,0c-4.866,0 -8.828,-3.957 -8.828,-8.828l0,-26.483c0,-6.776 -2.56,-12.966 -6.759,-17.655c4.199,-4.69 6.759,-10.879 6.759,-17.655l0,-26.483c0,-4.871 3.961,-8.828 8.828,-8.828l8.828,0c4.875,0 8.828,-3.948 8.828,-8.828c0,-4.879 -3.953,-8.828 -8.828,-8.828l-8.828,0c-14.603,0 -26.483,11.88 -26.483,26.483l0,26.483c0,4.871 -3.961,8.828 -8.828,8.828c-4.875,0 -8.828,3.948 -8.828,8.828c0,4.879 3.953,8.828 8.828,8.828c4.866,0 8.828,3.957 8.828,8.828l0,26.483c0,14.603 11.88,26.483 26.483,26.483l8.828,0c4.875,0 8.828,-3.948 8.828,-8.828c0,-4.88 -3.953,-8.828 -8.828,-8.828z"/>
   <path id="svg_10" fill="#6EAADC" d="m397.241,370.759c-4.866,0 -8.828,-3.957 -8.828,-8.828l0,-26.483c0,-14.603 -11.88,-26.483 -26.483,-26.483l-8.828,0c-4.875,0 -8.828,3.948 -8.828,8.828c0,4.879 3.953,8.828 8.828,8.828l8.828,0c4.866,0 8.828,3.957 8.828,8.828l0,26.483c0,6.776 2.56,12.966 6.759,17.655c-4.199,4.69 -6.759,10.879 -6.759,17.655l0,26.483c0,4.871 -3.961,8.828 -8.828,8.828l-8.828,0c-4.875,0 -8.828,3.948 -8.828,8.828c0,4.879 3.953,8.828 8.828,8.828l8.828,0c14.603,0 26.483,-11.88 26.483,-26.483l0,-26.483c0,-4.871 3.961,-8.828 8.828,-8.828c4.875,0 8.828,-3.948 8.828,-8.828c0,-4.88 -3.953,-8.828 -8.828,-8.828z"/>
   <path id="svg_11" fill="#6EAADC" d="m269.771,407.569c-0.53,-0.353 -1.06,-0.621 -1.59,-0.793c-0.53,-0.267 -1.06,-0.439 -1.59,-0.534c-2.914,-0.612 -6.001,0.353 -8.03,2.388c-1.59,1.673 -2.56,3.975 -2.56,6.268c0,2.379 0.879,4.586 2.56,6.268c0.879,0.793 1.854,1.414 2.91,1.854c1.06,0.439 2.207,0.707 3.358,0.707c1.146,0 2.293,-0.267 3.353,-0.707c1.06,-0.44 2.03,-1.06 2.914,-1.854c1.677,-1.681 2.56,-3.887 2.56,-6.268c0,-2.293 -0.974,-4.595 -2.56,-6.268c-0.446,-0.354 -0.885,-0.793 -1.325,-1.061z"/>
   <path id="svg_12" fill="#6EAADC" d="m303.491,406.776c-2.121,-0.974 -4.59,-0.974 -6.711,0c-1.056,0.439 -2.03,1.06 -2.91,1.854c-1.59,1.673 -2.56,3.975 -2.56,6.268c0,2.379 0.879,4.586 2.56,6.268c0.879,0.793 1.854,1.414 2.91,1.854c1.06,0.439 2.207,0.707 3.358,0.707c1.146,0 2.293,-0.267 3.353,-0.707c1.06,-0.44 2.03,-1.06 2.914,-1.854c1.677,-1.681 2.56,-3.887 2.56,-6.268c0,-2.293 -0.974,-4.595 -2.56,-6.268c-0.883,-0.793 -1.767,-1.415 -2.914,-1.854z"/>
   <path id="svg_13" fill="#6EAADC" d="m341.716,408.629c-0.884,-0.793 -1.854,-1.414 -2.914,-1.854c-2.121,-0.974 -4.59,-0.974 -6.711,0c-1.056,0.439 -2.03,1.06 -2.91,1.854c-1.59,1.673 -2.56,3.975 -2.56,6.268c0,2.379 0.879,4.586 2.56,6.268c1.677,1.673 3.884,2.56 6.268,2.56s4.59,-0.888 6.268,-2.56c1.677,-1.681 2.56,-3.887 2.56,-6.268c-0.001,-2.293 -0.975,-4.595 -2.561,-6.268z"/>
  </g>
  <g id="svg_14"/>
  <g id="svg_15"/>
  <g id="svg_16"/>
  <g id="svg_17"/>
  <g id="svg_18"/>
  <g id="svg_19"/>
  <g id="svg_20"/>
  <g id="svg_21"/>
  <g id="svg_22"/>
  <g id="svg_23"/>
  <g id="svg_24"/>
  <g id="svg_25"/>
  <g id="svg_26"/>
  <g id="svg_27"/>
  <g id="svg_28"/>
  <rect id="svg_31" height="187" width="248" y="74.5" x="114.75001" opacity="undefined" stroke-opacity="null" stroke-dasharray="null" stroke-width="null" stroke="null" fill="#e4eaf6"/>
  <rect id="svg_32" height="0.25" width="43.24987" y="219.87432" x="179.25023" opacity="undefined" stroke-opacity="null" stroke-dasharray="null" stroke-width="null" stroke="null" fill="#e4eaf6"/>
 </g>
</svg>