<svg xmlns="http://www.w3.org/2000/svg" xmlns:xlink="http://www.w3.org/1999/xlink" xmlns:fi="http://pattern.flaticon.com/" x="0" y="0" width="700" height="350" viewBox="0 0 700 350"><rect x="0px" y="0px" width="100%" height="100%" opacity="0.3" fill="#a4b4d2"/><defs><path d="M172.228,344.445c-16.641,0-32.34-6.503-44.208-18.311c-3.132-3.116-3.145-8.182-0.028-11.313  c3.116-3.133,8.182-3.144,11.313-0.028c8.849,8.804,20.541,13.652,32.922,13.652c25.774,0,46.743-20.968,46.743-46.741v-10.046  l-46.744-26.987l-20.118,11.615c-3.825,2.207-8.719,0.898-10.928-2.929c-2.209-3.826-0.898-8.719,2.928-10.928l12.118-6.997  l-30.741-17.748v23.039c0,4.418-3.582,8-8,8s-8-3.582-8-8v-32.276l-46.742-26.986l-8.701,5.022  c-10.76,6.213-18.472,16.298-21.714,28.399c-3.243,12.101-1.607,24.691,4.606,35.451c4.258,7.376,10.461,13.437,17.938,17.525  c3.876,2.119,5.3,6.98,3.181,10.857c-2.12,3.876-6.98,5.303-10.857,3.18c-10.052-5.497-18.391-13.645-24.117-23.562  c-8.35-14.461-10.553-31.363-6.205-47.593c4.349-16.229,14.708-29.765,29.169-38.113l0.701-0.405l-0.702-0.405  C16.097,154.528,5.79,116.112,23.051,86.159c0.009-0.017,0.019-0.033,0.028-0.049c17.299-29.96,55.744-40.26,85.706-22.965  l0.701,0.405v-0.809C109.486,28.146,137.632,0,172.228,0c15.526,0,30.452,5.77,42.028,16.245c3.276,2.965,3.529,8.023,0.564,11.3  c-2.964,3.276-8.024,3.528-11.299,0.563C194.892,20.3,183.778,16,172.228,16c-25.774,0-46.742,20.969-46.742,46.742v10.046  l46.742,26.986l25.224-14.562c3.826-2.209,8.72-0.898,10.928,2.928c2.209,3.826,0.898,8.719-2.928,10.928l-17.224,9.945  l30.743,17.749v-9.28c0-4.418,3.582-8,8-8s8,3.582,8,8v18.518l46.741,26.986l8.701-5.024c10.76-6.211,18.471-16.297,21.713-28.397  s1.606-24.691-4.606-35.451c-4.322-7.487-10.638-13.608-18.265-17.702c-3.893-2.09-5.354-6.939-3.265-10.832  c2.089-3.895,6.94-5.355,10.833-3.266c10.252,5.503,18.743,13.733,24.554,23.801c8.349,14.46,10.552,31.362,6.204,47.591  c-4.349,16.229-14.708,29.765-29.168,38.114l-0.701,0.404l0.701,0.405c14.461,8.35,24.82,21.885,29.168,38.114  c4.337,16.186,2.157,33.04-6.137,47.475c-0.022,0.04-0.044,0.08-0.067,0.119c-17.299,29.959-55.746,40.263-85.706,22.964  l-0.701-0.404v0.809C234.971,316.3,206.825,344.445,172.228,344.445z M234.971,262.421l8.701,5.022  c22.287,12.87,50.879,5.236,63.792-17.009c0.019-0.034,0.039-0.068,0.058-0.102c6.212-10.76,7.848-23.35,4.606-35.45  c-3.243-12.101-10.954-22.187-21.714-28.399l-8.701-5.023l-46.741,26.986V262.421z M188.227,235.433l30.744,17.75v-35.499  L188.227,235.433z M125.486,199.209l46.741,26.986l46.744-26.987v-53.972l-46.743-26.986l-46.742,26.986V199.209z M78.744,172.223  l30.742,17.749v-35.498L78.744,172.223z M234.971,154.475v35.496l30.741-17.748L234.971,154.475z M36.963,94.063  c-0.01,0.017-0.019,0.033-0.029,0.05c-12.886,22.319-5.211,50.962,17.108,63.849l8.702,5.023l46.742-26.986V82.026l-8.701-5.023  C78.481,64.123,49.863,71.781,36.963,94.063z M125.486,91.264v35.498l30.742-17.749L125.486,91.264z M99.543,310.015  c-14.305,0-25.943-11.638-25.943-25.943s11.638-25.943,25.943-25.943s25.943,11.638,25.943,25.943S113.848,310.015,99.543,310.015z   M99.543,274.128c-5.483,0-9.943,4.461-9.943,9.943s4.46,9.943,9.943,9.943c5.482,0,9.943-4.461,9.943-9.943  S105.025,274.128,99.543,274.128z M242.976,88.601c-14.305,0-25.943-11.638-25.943-25.943s11.638-25.943,25.943-25.943  c14.306,0,25.945,11.638,25.945,25.943S257.282,88.601,242.976,88.601z M242.976,52.714c-5.482,0-9.943,4.461-9.943,9.943  s4.46,9.943,9.943,9.943c5.483,0,9.945-4.461,9.945-9.943S248.459,52.714,242.976,52.714z" transform="matrix(0.17419326305389404 0 0 0.17419326305389404 111.0000005103318 261)" id="L1_0" fill="#ffffff"/><path d="M310.331,305.092H8c-4.418,0-8-3.582-8-8V109.059c0-4.418,3.582-8,8-8s8,3.582,8,8v180.033h286.331V109.059  c0-4.418,3.582-8,8-8s8,3.582,8,8v188.033C318.331,301.51,314.749,305.092,310.331,305.092z M261.634,269.336h-18.242  c-4.418,0-8-3.582-8-8s3.582-8,8-8h18.242c4.418,0,8,3.582,8,8S266.052,269.336,261.634,269.336z M143.252,269.336h-36.485  c-4.418,0-8-3.582-8-8s3.582-8,8-8h36.485c4.418,0,8,3.582,8,8S147.67,269.336,143.252,269.336z M74.941,269.336H38.455  c-4.418,0-8-3.582-8-8s3.582-8,8-8h36.486c4.418,0,8,3.582,8,8S79.359,269.336,74.941,269.336z M279.877,239.262h-36.485  c-4.418,0-8-3.582-8-8s3.582-8,8-8h36.485c4.418,0,8,3.582,8,8S284.295,239.262,279.877,239.262z M211.565,239.262H175.08  c-4.418,0-8-3.582-8-8s3.582-8,8-8h36.485c4.418,0,8,3.582,8,8S215.983,239.262,211.565,239.262z M143.252,208.234h-36.485  c-4.418,0-8-3.582-8-8s3.582-8,8-8h36.485c4.418,0,8,3.582,8,8S147.67,208.234,143.252,208.234z M74.941,208.234H38.455  c-4.418,0-8-3.582-8-8v-30.073c0-4.418,3.582-8,8-8h36.486c4.418,0,8,3.582,8,8v30.073  C82.941,204.653,79.359,208.234,74.941,208.234z M46.455,192.234h20.486v-14.073H46.455V192.234z M211.565,178.161H175.08  c-4.418,0-8-3.582-8-8s3.582-8,8-8h36.485c4.418,0,8,3.582,8,8S215.983,178.161,211.565,178.161z M279.877,147.132h-36.485  c-4.418,0-8-3.582-8-8v-30.073c0-4.418,3.582-8,8-8h36.485c4.418,0,8,3.582,8,8v30.073  C287.877,143.551,284.295,147.132,279.877,147.132z M251.392,131.132h20.485v-14.073h-20.485V131.132z M143.252,147.132h-36.485  c-4.418,0-8-3.582-8-8v-30.073c0-4.418,3.582-8,8-8h36.485c4.418,0,8,3.582,8,8v30.073  C151.252,143.551,147.67,147.132,143.252,147.132z M114.767,131.132h20.485v-14.073h-20.485V131.132z M211.565,117.059H175.08  c-4.418,0-8-3.582-8-8s3.582-8,8-8h36.485c4.418,0,8,3.582,8,8S215.983,117.059,211.565,117.059z M74.941,117.059H38.455  c-4.418,0-8-3.582-8-8s3.582-8,8-8h36.486c4.418,0,8,3.582,8,8S79.359,117.059,74.941,117.059z M310.331,82.385H8  c-4.418,0-8-3.582-8-8V33.33c0-4.418,3.582-8,8-8h18.171c4.418,0,8,3.582,8,8s-3.582,8-8,8H16v25.056h286.331V41.33h-10.226  c-4.418,0-8-3.582-8-8s3.582-8,8-8h18.226c4.418,0,8,3.582,8,8v41.056C318.331,78.804,314.749,82.385,310.331,82.385z   M266.919,53.42c-4.418,0-8-3.582-8-8V21.239c0-4.418,3.582-8,8-8s8,3.582,8,8V45.42C274.919,49.839,271.337,53.42,266.919,53.42z   M51.413,53.42c-4.418,0-8-3.582-8-8V21.239c0-4.418,3.582-8,8-8s8,3.582,8,8V45.42C59.413,49.839,55.831,53.42,51.413,53.42z   M242.53,41.33H77.055c-4.418,0-8-3.582-8-8s3.582-8,8-8H242.53c4.418,0,8,3.582,8,8S246.948,41.33,242.53,41.33z" transform="matrix(0.13900880452761344 -0.08803890656828482 0.08803890656828482 0.13900880452761344 207.85365022173409 91.87278169865061)" id="L1_1" fill="#ffffff"/><g transform="matrix(0.1331706049602815 0.053268240046521476 -0.053268240046521476 0.1331706049602815 10.341332349768212 300.7967442424706)" id="L1_2"><path d="M441.784,412.342L416.919,295.12l-39.216-184.874c-1.146-5.402-6.454-8.853-11.857-7.707   c-5.402,1.146-8.854,6.455-7.707,11.857l36.654,172.798h-66.088c-5.522,0-10,4.477-10,10s4.478,10,10,10h70.331l23.184,109.297   c0.997,4.703,5.149,7.927,9.772,7.927c0.688,0,1.386-0.071,2.085-0.22c4.701-0.997,7.924-5.146,7.927-9.766   C442.005,413.744,441.934,413.044,441.784,412.342z" fill="#ffffff"/><path d="M359.894,28.587c0.009-0.085,0.008-0.17,0.015-0.256c0.021-0.275,0.035-0.55,0.034-0.822   c-0.001-0.098-0.009-0.195-0.013-0.292c-0.009-0.259-0.025-0.517-0.054-0.773c-0.012-0.105-0.029-0.209-0.045-0.314   c-0.036-0.245-0.079-0.487-0.133-0.727c-0.025-0.112-0.053-0.222-0.082-0.333c-0.06-0.228-0.127-0.453-0.202-0.675   c-0.039-0.115-0.077-0.231-0.121-0.345c-0.082-0.217-0.174-0.429-0.271-0.639c-0.051-0.11-0.098-0.222-0.153-0.331   c-0.117-0.231-0.246-0.455-0.38-0.676c-0.047-0.078-0.088-0.159-0.138-0.236c-0.189-0.293-0.393-0.576-0.611-0.848   c-0.008-0.01-0.015-0.021-0.023-0.032c-0.045-0.055-0.097-0.103-0.143-0.157c-0.175-0.207-0.354-0.408-0.545-0.601   c-0.08-0.08-0.164-0.154-0.246-0.232c-0.177-0.166-0.357-0.327-0.546-0.481c-0.09-0.073-0.182-0.142-0.274-0.212   c-0.192-0.145-0.389-0.283-0.592-0.414c-0.096-0.062-0.192-0.123-0.289-0.181c-0.206-0.123-0.418-0.238-0.634-0.347   c-0.104-0.052-0.206-0.106-0.312-0.154c-0.212-0.098-0.431-0.184-0.652-0.268c-0.116-0.044-0.231-0.092-0.349-0.131   c-0.212-0.071-0.43-0.129-0.649-0.186c-0.13-0.034-0.259-0.075-0.39-0.104c-0.025-0.005-0.048-0.014-0.073-0.02   c-0.238-0.05-0.474-0.081-0.711-0.114c-0.089-0.012-0.176-0.032-0.265-0.042c-0.365-0.041-0.729-0.06-1.09-0.061   c-0.003,0-0.006-0.001-0.009-0.001h-257.8c-0.022,0-0.045,0-0.067,0h-0.022c-0.04,0-0.079,0.005-0.119,0.006   c-0.295,0.003-0.589,0.015-0.879,0.044c-0.087,0.009-0.172,0.026-0.258,0.037c-0.238,0.03-0.476,0.061-0.71,0.108   c-0.139,0.028-0.273,0.067-0.409,0.1c-0.176,0.043-0.354,0.083-0.527,0.135c-0.167,0.051-0.329,0.113-0.493,0.173   c-0.138,0.05-0.278,0.095-0.413,0.151c-0.171,0.07-0.335,0.152-0.501,0.232c-0.125,0.06-0.251,0.115-0.373,0.18   c-0.156,0.083-0.304,0.175-0.455,0.266c-0.127,0.076-0.256,0.149-0.379,0.23c-0.13,0.086-0.254,0.181-0.38,0.273   c-0.136,0.1-0.274,0.197-0.405,0.303c-0.103,0.084-0.199,0.174-0.299,0.262c-0.144,0.127-0.289,0.252-0.425,0.387   c-0.081,0.08-0.155,0.165-0.233,0.248c-0.144,0.152-0.288,0.304-0.422,0.465c-0.068,0.082-0.13,0.169-0.195,0.252   c-0.132,0.169-0.264,0.337-0.385,0.515c-0.068,0.099-0.127,0.204-0.191,0.305c-0.106,0.168-0.214,0.335-0.311,0.511   c-0.078,0.142-0.145,0.29-0.216,0.436c-0.069,0.142-0.143,0.281-0.206,0.427c-0.092,0.213-0.17,0.434-0.247,0.655   c-0.03,0.087-0.067,0.17-0.095,0.258c-0.091,0.284-0.165,0.575-0.231,0.869c-0.007,0.032-0.019,0.063-0.025,0.096l-0.004,0.018   c-0.005,0.025-0.011,0.049-0.016,0.074L25.087,295.113c-0.008,0.039-0.017,0.078-0.025,0.117L0.22,412.342   c-1.146,5.403,2.305,10.711,7.707,11.857c0.7,0.148,1.397,0.22,2.085,0.22c4.622,0,8.775-3.224,9.772-7.927l23.184-109.297h98.178   l23.184,109.297c0.997,4.703,5.149,7.927,9.772,7.927c0.688,0,1.386-0.071,2.085-0.22c5.402-1.146,8.854-6.455,7.707-11.857   l-22.304-105.147h118.821l-22.304,105.147c-1.146,5.403,2.305,10.711,7.707,11.857c0.7,0.148,1.397,0.22,2.085,0.22   c4.622,0,8.775-3.224,9.772-7.927L359.729,29.66C359.805,29.301,359.858,28.943,359.894,28.587z M100.159,37.585h237.444   l-52.948,249.611H47.211L100.159,37.585z" fill="#ffffff"/><path d="M263.129,87.918H149.036c-5.522,0-10,4.477-10,10s4.478,10,10,10h114.093c5.522,0,10-4.477,10-10   S268.651,87.918,263.129,87.918z" fill="#ffffff"/><path d="M254.012,130.899H139.919c-5.522,0-10,4.477-10,10s4.478,10,10,10h114.093c5.522,0,10-4.477,10-10   S259.534,130.899,254.012,130.899z" fill="#ffffff"/><path d="M244.895,173.88H130.802c-5.522,0-10,4.477-10,10s4.478,10,10,10h114.093c5.522,0,10-4.477,10-10   S250.417,173.88,244.895,173.88z" fill="#ffffff"/><path d="M235.777,216.862H121.685c-5.522,0-10,4.477-10,10s4.478,10,10,10h114.093c5.522,0,10-4.477,10-10   S241.3,216.862,235.777,216.862z" fill="#ffffff"/></g><g transform="matrix(0.05435389595565105 -0.03736830213676428 0.03736830213676428 0.05435389595565105 61.738980714337835 159.2253080987656)" id="L1_3"><path d="M437.329,284.984l-11.858-7.467c-4.674-2.943-10.848-1.54-13.791,3.133c-2.617,4.156-1.797,9.5,1.704,12.702   L254.537,393.377L28.617,251.116c3.501-3.202,4.321-8.545,1.704-12.702c-2.943-4.673-9.118-6.075-13.791-3.133l-11.858,7.467   C1.764,244.579,0,247.774,0,251.21s1.764,6.631,4.671,8.462l244.537,153.984c1.628,1.025,3.479,1.538,5.329,1.538   s3.7-0.513,5.329-1.538l177.463-111.748c2.907-1.831,4.671-5.026,4.671-8.462S440.236,286.815,437.329,284.984z" fill="#ffffff"/><path d="M437.329,233.656l-11.858-7.467c-4.674-2.943-10.848-1.541-13.791,3.133c-2.617,4.156-1.797,9.5,1.704,12.702   L254.537,342.049L28.617,199.788c3.501-3.202,4.321-8.545,1.704-12.702c-2.943-4.673-9.118-6.076-13.791-3.133L4.671,191.42   C1.764,193.25,0,196.446,0,199.882s1.764,6.631,4.671,8.462l244.537,153.984c1.628,1.025,3.479,1.538,5.329,1.538   s3.7-0.513,5.329-1.538L437.329,250.58c2.907-1.831,4.671-5.026,4.671-8.462S440.236,235.487,437.329,233.656z" fill="#ffffff"/><path d="M4.671,157.016L249.208,311c1.628,1.025,3.479,1.538,5.329,1.538s3.7-0.513,5.329-1.538l177.463-111.748   c2.907-1.831,4.671-5.026,4.671-8.462s-1.764-6.631-4.671-8.462L192.792,28.344c-3.257-2.051-7.4-2.051-10.657,0L4.671,140.092   C1.764,141.922,0,145.118,0,148.554S1.764,155.185,4.671,157.016z M187.463,48.623l225.77,142.167l-158.696,99.931L28.767,148.554   L187.463,48.623z" fill="#ffffff"/><path d="M253.213,172.22l34.832,21.934c1.655,1.042,3.498,1.54,5.319,1.54c3.321,0,6.571-1.654,8.471-4.673   c2.943-4.673,1.54-10.848-3.133-13.791l-34.832-21.934c-4.672-2.943-10.848-1.541-13.791,3.133   C247.137,163.103,248.54,169.277,253.213,172.22z" fill="#ffffff"/><path d="M190.232,132.561l34.831,21.933c1.655,1.042,3.498,1.54,5.319,1.54c3.321,0,6.571-1.654,8.471-4.673   c2.943-4.673,1.54-10.848-3.133-13.791l-34.831-21.933c-4.673-2.944-10.848-1.541-13.791,3.133   C184.156,123.444,185.559,129.618,190.232,132.561z" fill="#ffffff"/><path d="M251.768,206.783l-97.812-61.592c-4.674-2.943-10.848-1.54-13.791,3.133c-2.943,4.673-1.54,10.848,3.133,13.791   l97.812,61.592c1.655,1.042,3.498,1.54,5.319,1.54c3.321,0,6.571-1.654,8.471-4.673C257.844,215.9,256.441,209.726,251.768,206.783   z" fill="#ffffff"/></g><path d="M337.892,347.334c-3.176,0-6.181-1.904-7.431-5.034l-19.959-49.96c-10.254-25.266-22.047-38.02-38.459-41.012l-4.17,19.905  l5.77,51.905c0.302,2.72-0.807,5.406-2.94,7.12l-12.873,10.344c-1.421,1.142-3.188,1.764-5.011,1.764h-4.568  c-1.822,0-3.59-0.622-5.011-1.764l-12.875-10.344c-2.134-1.714-3.243-4.4-2.94-7.12l5.771-51.905l-4.171-19.904  c-16.411,2.992-28.205,15.751-38.475,41.052l-20.271,49.959c-1.661,4.093-6.325,6.066-10.421,4.405  c-4.094-1.661-6.066-6.327-4.405-10.421l20.271-49.96c8.793-21.663,24.391-50.285,58.731-51.681  c0.304-0.035,0.611-0.053,0.921-0.053h30.316c0.31,0,0.617,0.018,0.921,0.053c34.344,1.396,49.94,30.019,58.731,51.68l19.975,50.001  c1.64,4.103-0.357,8.758-4.461,10.396C339.885,347.149,338.88,347.334,337.892,347.334z M243.812,320.538l6.723,5.401l6.721-5.4  l-4.635-41.693h-4.173L243.812,320.538z M247.785,262.846h5.498l2.56-12.215h-10.617L247.785,262.846z M9.441,347.334  c-1.002,0-2.02-0.189-3.005-0.589c-4.094-1.661-6.066-6.327-4.405-10.421l19.97-49.219c8.893-21.911,24.845-51.041,60.565-51.041  h26.489c19.255,0,35.103,8.562,47.104,25.449c0.198,0.278,1.107,1.517,2.211,3.02c3.823,5.211,4.839,6.607,5.174,7.113  c2.438,3.686,1.426,8.648-2.26,11.086c-3.671,2.428-8.606,1.434-11.055-2.214c-0.43-0.618-3.243-4.452-4.759-6.52  c-1.191-1.622-2.168-2.955-2.358-3.224c-5.535-7.789-11.722-13.039-18.922-15.948l-21.916,30.032  c-1.506,2.063-3.907,3.284-6.462,3.284s-4.956-1.221-6.462-3.284l-21.914-30.028c-12.489,5.063-22.083,17.279-30.609,38.29  l-19.97,49.219C15.595,345.448,12.601,347.334,9.441,347.334z M85.225,252.064l10.587,14.508l10.587-14.508H85.225z   M128.081,347.331H43c-4.418,0-8-3.582-8-8s3.582-8,8-8h85.081c4.418,0,8,3.582,8,8S132.499,347.331,128.081,347.331z   M286.914,289.102c-4.418,0-8-3.582-8-8v-1.001c0-4.418,3.582-8,8-8s8,3.582,8,8v1.001  C294.914,285.52,291.332,289.102,286.914,289.102z M95.812,224.323c-22.383,0-40.593-18.21-40.593-40.594  c0-18.437,12.354-34.041,29.218-38.971c0.082-0.026,0.164-0.052,0.248-0.075c2.672-0.761,5.419-1.243,8.2-1.442h0.002  c0.012-0.002,0.026-0.004,0.039-0.003c0.019-0.002,0.032-0.003,0.046-0.003c0.017-0.001,0.033-0.001,0.05-0.004  c0.017,0,0.028-0.001,0.044-0.003c0.021,0.001,0.035-0.002,0.051-0.003c0.014-0.004,0.027-0.002,0.041-0.003  c0.032,0.001,0.061-0.003,0.092-0.006l0,0c0.132-0.009,0.263-0.016,0.396-0.022l0.002-0.001c0.043-0.002,0.086-0.004,0.129-0.006  c0.014,0.001,0.056-0.004,0.087-0.005c0.011,0.001,0.026,0,0.041-0.002c0.017-0.002,0.033-0.001,0.05-0.002  c0.014-0.001,0.023-0.001,0.039-0.002c0.012,0,0.022-0.001,0.037-0.001c0.015-0.003,0.031-0.002,0.044-0.002  c0.015-0.002,0.027-0.004,0.046-0.002c0.011-0.002,0.021-0.003,0.035-0.002c0.031-0.002,0.063,0.006,0.093-0.004  c0.496-0.019,0.993-0.028,1.491-0.029c0.013,0.001,0.023,0,0.035,0s0.025,0,0.036,0c0.002,0,0.002,0,0.002,0c0.04,0,0.081,0,0.12,0  h0.001c0.021,0,0.044-0.001,0.063,0s0.047,0.002,0.064,0.001c0.023,0,0.048,0.001,0.069,0c0.008,0,0.017,0,0.025,0  c19.896,0.164,36.479,14.48,39.69,33.85c0.368,2.193,0.56,4.445,0.56,6.742C136.406,206.113,118.196,224.323,95.812,224.323z   M81.422,163.797c-6.177,4.472-10.203,11.741-10.203,19.933c0,13.562,11.032,24.594,24.593,24.594  c11.494,0,21.172-7.926,23.854-18.6C102.287,189.823,87.343,179.234,81.422,163.797z M96.822,159.157  c3.701,8.368,11.887,14.155,21.447,14.547C114.554,165.417,106.382,159.546,96.822,159.157z M250.533,222.472  c-22.653,0-41.083-18.431-41.083-41.085c0-22.653,18.43-41.083,41.083-41.083c2.71,0,5.361,0.264,7.927,0.768  c0.167,0.028,0.335,0.062,0.502,0.102c18.625,3.899,32.656,20.449,32.656,40.214C291.618,204.041,273.187,222.472,250.533,222.472z   M236.322,160.728c-6.562,4.528-10.872,12.101-10.872,20.659c0,13.832,11.252,25.085,25.083,25.085  c13.832,0,25.085-11.253,25.085-25.085c0-10.292-6.231-19.156-15.119-23.019c-3.356,4.322-7.551,7.945-12.369,10.649  c-3.853,2.164-8.729,0.793-10.892-3.06C236.309,164.305,236.032,162.463,236.322,160.728z M61.034,138.828  c-1.398,0-2.796-0.366-4.044-1.098c-2.45-1.436-3.956-4.062-3.956-6.902V58.745c0-14.011,11.399-25.409,25.41-25.409h28.382  c4.418,0,8,3.582,8,8s-3.582,8-8,8H78.444c-5.188,0-9.41,4.221-9.41,9.409v58.43l11.015-6.173c1.195-0.67,2.542-1.021,3.911-1.021  h69.418c4.418,0,8,3.582,8,8s-3.582,8-8,8H86.048l-21.104,11.826C63.729,138.488,62.381,138.828,61.034,138.828z M250.577,122.257  c-2.207,0-4.367-0.914-5.913-2.609l-24.626-27.003h-64.687c-14.01,0-25.408-11.398-25.408-25.408V25.409  C129.943,11.398,141.341,0,155.351,0h77.813c14.011,0,25.41,11.398,25.41,25.409v88.848c0,3.303-2.029,6.266-5.109,7.459  C252.525,122.081,251.546,122.257,250.577,122.257z M155.351,16c-5.188,0-9.408,4.221-9.408,9.409v41.827  c0,5.188,4.221,9.408,9.408,9.408h68.218c2.25,0,4.396,0.947,5.911,2.609l13.095,14.358V25.409c0-5.188-4.222-9.409-9.41-9.409  H155.351z M105.225,79.577H90.711c-4.418,0-8-3.582-8-8s3.582-8,8-8h14.514c4.418,0,8,3.582,8,8S109.643,79.577,105.225,79.577z   M219.194,46.708h-33.021c-4.418,0-8-3.582-8-8s3.582-8,8-8h33.021c4.418,0,8,3.582,8,8S223.612,46.708,219.194,46.708z" transform="matrix(0.12641668277579568 -0.06932527877948048 0.06932527877948048 0.12641668277579568 232.01754059253193 230.07719835492676)" id="L1_4" fill="#ffffff"/><g transform="matrix(0.08958819074886 0.05439282861756951 -0.05439282861756951 0.08958819074886 117.22182647400209 48.18019622503636)" id="L1_5"><path d="M432,383.991H58.009V10c0-5.523-4.478-10-10-10s-10,4.477-10,10v373.991H10c-5.522,0-10,4.477-10,10s4.478,10,10,10h28.009   V432c0,5.523,4.478,10,10,10s10-4.477,10-10v-28.009H432c5.522,0,10-4.477,10-10S437.522,383.991,432,383.991z" fill="#ffffff"/><path d="M112.034,363.991c18.762,0,34.025-15.264,34.025-34.025c0-7.414-2.391-14.276-6.432-19.872l57.969-70.329   c3.999,1.655,8.376,2.573,12.966,2.573c8.642,0,16.536-3.244,22.544-8.571l43.007,26.218c-0.684,2.685-1.049,5.496-1.049,8.391   c0,18.762,15.264,34.025,34.025,34.025s34.025-15.264,34.025-34.025c0-9.864-4.223-18.757-10.951-24.977l69.884-145.678   c1.814,0.3,3.673,0.464,5.57,0.464c18.762,0,34.025-15.264,34.025-34.025s-15.264-34.025-34.025-34.025   s-34.025,15.264-34.025,34.025c0,9.673,4.064,18.41,10.567,24.611l-70.019,145.958c-1.649-0.246-3.335-0.377-5.051-0.377   c-8.642,0-16.536,3.244-22.544,8.571l-43.007-26.218c0.684-2.685,1.049-5.496,1.049-8.391c0-18.762-15.264-34.026-34.025-34.026   s-34.025,15.264-34.025,34.026c0,6.913,2.078,13.347,5.634,18.722l-58.489,70.96c-3.635-1.329-7.558-2.055-11.648-2.055   c-18.762,0-34.025,15.264-34.025,34.026S93.272,363.991,112.034,363.991z M407.618,50.134c7.733,0,14.025,6.292,14.025,14.025   s-6.292,14.025-14.025,14.025s-14.025-6.292-14.025-14.025S399.885,50.134,407.618,50.134z M309.09,254.351   c7.733,0,14.025,6.292,14.025,14.025s-6.292,14.025-14.025,14.025s-14.025-6.292-14.025-14.025S301.356,254.351,309.09,254.351z    M210.563,194.287c7.733,0,14.025,6.292,14.025,14.026c0,7.733-6.292,14.025-14.025,14.025s-14.025-6.292-14.025-14.025   C196.537,200.579,202.829,194.287,210.563,194.287z M112.034,315.94c7.733,0,14.025,6.292,14.025,14.026   c0,7.733-6.292,14.025-14.025,14.025s-14.025-6.292-14.025-14.025C98.009,322.232,104.301,315.94,112.034,315.94z" fill="#ffffff"/></g><g transform="matrix(0.06600801014484972 0.028699134842677346 -0.028699134842677346 0.06600801014484972 282.45442637156464 3.7518849554687357)" id="L1_6"><path d="M441.302,200.354l-189.576,75.83V72c0-4.418-3.582-8-8-8c-59.833,0-116.084,23.3-158.392,65.608   C43.027,171.916,19.726,228.167,19.726,288s23.3,116.084,65.608,158.392C127.642,488.7,183.894,512,243.726,512   s116.084-23.3,158.392-65.608c42.308-42.308,65.608-98.559,65.608-158.392c0-28.644-5.392-56.634-16.026-83.192   C450.059,200.706,445.405,198.716,441.302,200.354z M235.726,264.3L124.174,117.887c31.806-22.419,70.147-36.161,111.552-37.736   V264.3z M243.726,496c-114.691,0-208-93.309-208-208c0-64.493,29.511-122.219,75.732-160.401l125.904,165.249   c0.066,0.087,0.142,0.162,0.211,0.245c0.099,0.119,0.197,0.238,0.302,0.352c0.124,0.134,0.254,0.258,0.385,0.381   c0.098,0.092,0.194,0.185,0.296,0.272c0.157,0.133,0.32,0.254,0.485,0.374c0.068,0.049,0.129,0.106,0.198,0.153   c0.025,0.017,0.052,0.029,0.077,0.045c0.185,0.122,0.376,0.23,0.569,0.336c0.087,0.048,0.172,0.101,0.26,0.145   c0.2,0.1,0.406,0.184,0.613,0.267c0.089,0.036,0.175,0.078,0.264,0.11c0.221,0.079,0.446,0.141,0.673,0.2   c0.079,0.021,0.156,0.05,0.236,0.068c0.3,0.069,0.603,0.12,0.909,0.154c0.122,0.014,0.245,0.013,0.368,0.021   c0.174,0.011,0.347,0.029,0.521,0.029c0.013,0,0.025-0.003,0.038-0.003c0.381-0.002,0.763-0.034,1.142-0.091   c0.105-0.016,0.207-0.042,0.312-0.062c0.274-0.052,0.545-0.117,0.814-0.199c0.132-0.04,0.262-0.083,0.393-0.13   c0.088-0.032,0.178-0.053,0.266-0.088l192.981-77.192c7.998,22.413,12.048,45.843,12.048,69.765   C451.726,402.691,358.418,496,243.726,496z" fill="#ffffff"/><path d="M491.7,140.808c-16.45-41.084-44.46-76.126-81.002-101.336c-1.697-1.171-3.412-2.308-5.135-3.428   c-0.076-0.052-0.153-0.1-0.23-0.149C369.104,12.396,327.202,0,283.726,0c-4.418,0-8,3.582-8,8v31.998v0.005v39.995v0.005v39.995   v0.005v39.995v0.005v39.995v0.005V224c0,2.654,1.317,5.137,3.515,6.625c1.343,0.909,2.909,1.375,4.485,1.375   c1.004,0,2.012-0.188,2.971-0.572l22.463-8.985c0.039,0,0.078,0.006,0.118,0.006c2.024,0,4.047-0.767,5.603-2.294l65.141-26.056   c0.029-0.011,0.057-0.023,0.086-0.035l66.589-26.635c0.023-0.01,0.047-0.019,0.07-0.028l40.478-16.191   c1.97-0.788,3.547-2.327,4.382-4.277C492.463,144.98,492.489,142.777,491.7,140.808z M410.277,164.763l50.276-50.276   c2.229,3.601,4.342,7.279,6.353,11.02l-27.675,27.675L410.277,164.763z M343.61,191.43L443.821,91.219   c2.636,3.176,5.161,6.442,7.602,9.769l-78.859,78.86L343.61,191.43z M412.058,60.354L291.726,180.686v-17.372L402.072,52.969   C405.484,55.337,408.809,57.805,412.058,60.354z M291.726,43.314l24.747-24.747c4.888,0.772,9.737,1.717,14.539,2.833   l-39.286,39.286V43.314z M291.726,83.314l56.967-56.967c4.289,1.409,8.529,2.963,12.719,4.653l-69.686,69.686V83.314z    M291.726,123.314l85.268-85.268c3.807,1.917,7.562,3.955,11.26,6.113l-96.527,96.527V123.314z M296.049,16.364l-4.322,4.322   v-4.535C293.17,16.206,294.61,16.28,296.049,16.364z M291.726,203.314L424.309,70.731c3.024,2.772,5.949,5.639,8.796,8.576   L305.897,206.515l-14.171,5.668V203.314z" fill="#ffffff"/></g><g transform="matrix(0.0902466943531072 -0.034710268505624156 0.034710268505624156 0.0902466943531072 315.9475052412753 110.08778009639052)" id="L1_7"><path d="M232.5,389.5c-12.407,0-22.5,10.094-22.5,22.5s10.093,22.5,22.5,22.5S255,424.406,255,412S244.906,389.5,232.5,389.5z    M232.5,419.5c-4.136,0-7.5-3.364-7.5-7.5s3.364-7.5,7.5-7.5s7.5,3.364,7.5,7.5S236.635,419.5,232.5,419.5z" fill="#ffffff"/><path d="M371.908,0H93.092C76.151,0,62.368,13.782,62.368,30.724v403.553c0,16.941,13.783,30.724,30.724,30.724h278.816   c16.941,0,30.724-13.782,30.724-30.724V30.724C402.632,13.782,388.849,0,371.908,0z M387.632,434.276   c0,8.67-7.054,15.724-15.724,15.724H93.092c-8.67,0-15.724-7.054-15.724-15.724V30.724c0-8.67,7.054-15.724,15.724-15.724h278.816   c8.67,0,15.724,7.054,15.724,15.724V434.276z" fill="#ffffff"/><path d="M355.132,40H109.868c-4.142,0-7.5,3.357-7.5,7.5V367c0,4.143,3.358,7.5,7.5,7.5h245.263c4.142,0,7.5-3.357,7.5-7.5V47.5   C362.632,43.357,359.274,40,355.132,40z M347.632,359.5H117.368V55h230.263V359.5z" fill="#ffffff"/></g><g transform="matrix(0.0718860859915023 0.026957282694231862 -0.026957282694231862 0.0718860859915023 31.498195610638412 210.75921442489252)" id="L1_8"><path d="M510.988,402.387c0.008-0.188,0.007-0.377,0-0.566V322.83c0-0.029,0-0.058,0-0.087V79.5   c0-21.78-17.719-39.499-39.499-39.499H39.499C17.719,40.001,0,57.72,0,79.5v351.992c0,21.78,17.719,39.499,39.499,39.499H183.47   c0.008,0,0.016,0.002,0.025,0.002c0.008,0,0.016-0.002,0.024-0.002h287.97c21.711,0,39.383-17.609,39.494-39.294   c0.001-0.035,0.002-0.071,0.003-0.106c0-0.033,0.003-0.065,0.003-0.098V402.387z M145.233,55.001   c3.406,24.965,13.717,60.662,33.722,93.292c13.056,21.294,28.947,39.275,47.234,53.443c21.663,16.784,46.794,28.27,74.693,34.139   c85.442,17.973,151.05,48.319,195.105,90.202v49.85c-37.599-51.258-105.35-87.453-201.899-107.763   c-61.936-13.03-110.287-47.714-143.71-103.089c-27.779-46.023-35.957-90.877-38.295-110.074H145.233z M271.494,55.001   c29.26,0,45.143,13.545,48.555,41.41c3.837,31.341,17.999,37.687,32.992,44.404c1.089,0.488,2.199,0.985,3.326,1.501   c5.919,2.713,8.173,8.212,11.647,17.697c2.231,6.092,4.76,12.998,9.256,19.674c11.813,17.54,26.823,16.333,40.064,15.267   c9.149-0.736,17.793-1.431,26.695,3.198c7.216,3.752,10.486,10.35,14.273,17.99c5.953,12.011,13.252,26.703,37.686,30.176v59.571   c-45.708-39.019-110.19-67.481-192.017-84.693c-47.783-10.051-85.542-37.217-112.228-80.743   c-21.444-34.976-28.873-69.313-31.331-85.452H271.494z M495.988,79.5v151.634c-14.873-2.768-19.097-11.265-24.246-21.653   c-4.328-8.73-9.232-18.626-20.793-24.638c-12.727-6.618-24.976-5.631-34.817-4.841c-13.175,1.06-19.802,1.133-26.42-8.694   c-3.479-5.166-5.581-10.904-7.613-16.454c-3.731-10.188-7.59-20.724-19.482-26.174c-1.167-0.535-2.315-1.049-3.442-1.555   c-13.817-6.191-21.429-9.601-24.237-32.539c-2.085-17.022-8.284-30.322-18.425-39.587h154.977   C484.998,55.001,495.988,65.991,495.988,79.5z M96.961,55.001c3.384,31.063,15.507,76.294,40.575,117.825   c16.099,26.672,35.918,49.216,58.908,67.006c27.224,21.067,59.038,35.538,94.557,43.011   c104.68,22.021,173.618,62.779,204.987,121.138v12.689c-9.806-6.033-17.605-7.958-23.766-9.478   c-9.193-2.268-12.632-3.117-17.617-18.071c-3.829-11.486-11.618-20.196-21.932-24.524c-8.823-3.704-23.7-5.987-44.474,4.157   c-5.207,2.543-11.055,2.177-17.824,1.757c-9.753-0.607-20.808-1.297-31.506,7.076c-22.876,17.903-30.485,36.323-36.598,51.124   c-7.503,18.164-11.269,27.281-38.778,27.281h-53.286c6.702-6.933,10.607-15.332,11.077-24.504   c0.828-16.139-9.404-31.018-26.703-38.83c-2.145-0.969-4.265-1.903-6.344-2.82c-24.007-10.582-34.412-16.122-29.453-36.577   c6.849-28.25-1.135-50.034-20.835-56.853c-7.328-2.537-12.046-6.228-14.023-10.972c-2.048-4.913-1.264-11.203,2.332-18.694   c0.671-1.397,1.369-2.818,2.077-4.261c7.803-15.891,18.489-37.655,5.567-58.883c-10.068-16.542-30.475-19.637-46.871-22.124   c-10.617-1.61-21.595-3.275-24.565-7.954c-1.497-2.358-1.423-6.356,0.221-11.885c7.013-23.59,12.03-56.511,7.907-68.563   c-7.081-20.698-30.25-30.468-43.797-34.515c3.706-2.256,8.054-3.556,12.701-3.556H96.961z M15,431.492V79.5   c0-2.86,0.497-5.605,1.402-8.159c3.31,0.742,10.003,2.471,17.094,5.644c8.479,3.794,19.335,10.507,22.906,20.943   c2.04,5.963-0.147,32.709-8.092,59.434c-2.977,10.012-2.488,17.927,1.494,24.199c6.631,10.445,20.401,12.534,34.979,14.745   c14.69,2.228,29.88,4.532,36.308,15.092c8.645,14.202,1.088,29.59-6.219,44.473c-0.729,1.483-1.446,2.944-2.135,4.381   c-6.883,14.34-5.243,24.75-2.655,30.958c3.642,8.736,11.583,15.435,22.962,19.375c17.681,6.12,13.015,31.508,11.164,39.144   c-8.124,33.515,15.314,43.846,37.98,53.837c2.039,0.898,4.118,1.814,6.221,2.765c11.543,5.212,18.4,14.559,17.896,24.391   c-0.55,10.734-9.547,20.116-24.113,25.272h-22.018c2.38-7.426,8.111-13.254,15.575-15.743c3.649-1.216,6.696-2.708,9.056-4.432   c1.995-1.458,3.145-3.804,3.072-6.274c-0.072-2.47-1.355-4.746-3.432-6.085c-0.917-0.592-1.938-1.142-3.033-1.636   c-2.021-0.913-4.018-1.793-5.977-2.657l-0.106-0.046c-11.034-4.864-26.145-11.525-36.858-22.982   c-12.293-13.146-15.821-29.636-10.785-50.413c1.58-6.513,1.638-11.142,1.409-13.877c-0.345-4.127-3.973-7.197-8.099-6.848   c-4.128,0.345-7.194,3.972-6.848,8.099c0.09,1.075,0.168,4.112-1.039,9.092c-13.159,54.283,25.326,76.546,49.59,87.709   c-8.574,5.288-14.864,13.703-17.45,23.719c-0.206,0.797-0.27,1.596-0.218,2.375H39.499C25.99,455.991,15,445.001,15,431.492z    M471.489,455.991H341.306c2.425-4.614,4.086-8.564,4.406-9.338c4.895-11.853,8.762-21.214,20.985-31.146   c3.215-2.612,3.703-7.335,1.091-10.55c-2.612-3.214-7.336-3.704-10.55-1.091c-15.176,12.331-20.137,24.343-25.39,37.061   c-1.602,3.878-4.885,10.624-7.987,15.064H304.59c5.207-6.227,8.343-13.8,11.546-21.554c5.725-13.86,12.213-29.569,31.979-45.038   c6.21-4.86,12.883-4.444,21.328-3.918c7.769,0.484,16.573,1.034,25.339-3.249c12.443-6.077,23.539-7.392,32.086-3.805   c6.359,2.669,11.03,8.007,13.506,15.437c7.087,21.261,15.402,24.721,28.255,27.892c7.298,1.801,15.503,3.838,27.125,13.081   C494.117,446.768,483.863,455.991,471.489,455.991z" fill="#ffffff"/><path d="M261.919,166.582c3.572,0,7.167-0.586,10.674-1.819c18.466-6.491,27.614-28.489,20.392-49.037   c-7.223-20.547-28.122-31.98-46.59-25.492c-18.466,6.491-27.614,28.489-20.392,49.037   C231.855,155.917,246.681,166.582,261.919,166.582z M251.37,104.386c1.891-0.665,3.834-0.981,5.777-0.981   c9.01,0,18.001,6.813,21.687,17.296c4.48,12.745-0.551,26.163-11.215,29.911c-10.659,3.751-22.984-3.57-27.464-16.315   C235.675,121.552,240.706,108.134,251.37,104.386z" fill="#ffffff"/><path d="M218.65,357.219c4.729,4.001,8.184,10.958,11.525,17.685c5.729,11.536,13.16,26.501,29.982,26.501   c4.082,0,8.718-0.881,14.014-2.907c14.534-5.557,31.862-20.928,35.561-41.546c1.975-11.004,0.578-27.413-17.292-43.095   c-17.441-15.307-43.873-32.178-70.718-25.65c-12.158,2.958-20.28,10.631-22.872,21.607   C195.244,325.095,203.201,344.146,218.65,357.219z M213.45,313.26c1.264-5.353,5.24-8.878,11.818-10.478   c2.49-0.606,5.352-1,8.588-1c11.534,0,27.798,5.014,48.691,23.349c10.122,8.883,14.301,18.697,12.422,29.171   c-2.526,14.076-15.36,26.057-26.154,30.184c-13.282,5.079-17.039,0.189-25.206-16.256c-3.832-7.715-8.174-16.459-15.27-22.463   C217.442,336.547,211.18,322.876,213.45,313.26z" fill="#ffffff"/><path d="M354.627,104.198c1.291,2.691,3.979,4.265,6.778,4.265c1.085,0,2.188-0.237,3.232-0.738   c3.734-1.791,5.314-6.262,3.522-9.997c-0.008-0.018-0.83-1.881-1.46-7.028c-0.503-4.111-4.244-7.038-8.355-6.533   c-4.112,0.503-7.037,4.244-6.533,8.355C352.599,98.963,353.777,102.426,354.627,104.198z" fill="#ffffff"/><path d="M398.064,149.016c1.406,3.84,2.735,7.467,4.361,10.485c1.368,2.541,4.069,4.084,6.954,3.935   c1.644-0.077,3.548-0.23,5.389-0.378c3.685-0.296,7.861-0.632,12.414-0.632c11.779,0,22.119,2.4,31.61,7.335   c2.885,1.5,5.618,3.239,8.124,5.167c1.363,1.049,2.972,1.557,4.569,1.557c2.248,0,4.472-1.007,5.949-2.926   c2.526-3.282,1.914-7.991-1.369-10.518c-3.203-2.465-6.685-4.682-10.351-6.588c-11.681-6.074-24.285-9.026-38.531-9.027   c-5.083,0-9.524,0.352-13.452,0.667c-0.505-1.298-1.028-2.725-1.584-4.243c-2.788-7.612-7-19.115-15.997-29.3   c-2.742-3.104-7.481-3.398-10.586-0.656c-3.104,2.742-3.398,7.481-0.656,10.586C392.032,132.547,395.517,142.061,398.064,149.016z" fill="#ffffff"/><path d="M94.392,297.75c-1.594-3.824-5.988-5.631-9.808-4.037c-3.823,1.594-5.631,5.985-4.037,9.808   c2.282,5.475,5.358,10.6,9.143,15.232c1.482,1.815,3.639,2.755,5.813,2.755c1.668,0,3.348-0.554,4.74-1.692   c3.208-2.62,3.684-7.345,1.063-10.553C98.441,305.758,96.115,301.883,94.392,297.75z" fill="#ffffff"/><path d="M91.571,229.931c-1.649,4.149-4.311,9.57-5.423,11.833c-1.826,3.718-0.292,8.212,3.426,10.038   c1.063,0.522,2.19,0.77,3.3,0.77c2.771,0,5.434-1.541,6.738-4.195c6.298-12.825,9.125-19.835,8.154-24.986   c-0.425-2.254-1.858-4.19-3.891-5.254c-4.332-2.269-12.357-3.617-21.647-5.027c-10.007-1.518-21.35-3.239-31.258-8.419   c-3.67-1.92-8.202-0.5-10.121,3.171c-1.919,3.67-0.5,8.202,3.17,10.121c12.13,6.343,25.343,8.348,35.979,9.961   C82.259,228.287,87.443,229.074,91.571,229.931z" fill="#ffffff"/><path d="M40.133,104.903c-0.063-4.103-3.408-7.385-7.497-7.385c-0.039,0-0.079,0-0.117,0.001c-4.142,0.063-7.448,3.472-7.384,7.614   c0.052,3.376-0.526,10.918-2.323,21.062c-0.723,4.079,1.998,7.971,6.076,8.693c0.443,0.079,0.883,0.117,1.317,0.117   c3.568,0,6.732-2.557,7.376-6.193C39.238,119.464,40.216,110.302,40.133,104.903z" fill="#ffffff"/><path d="M424.245,399.232c-0.153-0.458-0.323-0.897-0.505-1.307c-1.145-2.57-3.631-4.283-6.44-4.437   c-0.233-0.013-0.504-0.022-0.813-0.022c-2.723,0-7.404,0.701-14.244,4.041c-3.874,1.892-7.875,3.239-12.233,4.117   c-4.061,0.818-6.689,4.773-5.871,8.833c0.818,4.06,4.772,6.695,8.833,5.871c5.55-1.118,10.884-2.916,15.853-5.342   c1.218-0.595,2.29-1.049,3.215-1.396c4.476,11.473,10.196,20.449,17.395,27.325c1.453,1.388,3.317,2.077,5.179,2.077   c1.977,0,3.951-0.777,5.424-2.32c2.861-2.995,2.752-7.743-0.243-10.604C433.274,419.84,428.189,411.064,424.245,399.232z" fill="#ffffff"/><path d="M244.508,337.222c5.272,2.73,11.127,6.867,16.933,11.962c0.394,0.345,0.751,0.685,1.064,1   c-0.112,0.151-0.233,0.308-0.365,0.47c-3.65,1.863-5.133,6.321-3.311,10.005l0.22,0.443c1.061,2.128,3.068,3.627,5.409,4.041   c0.435,0.077,0.871,0.114,1.304,0.114c1.904,0,3.757-0.726,5.162-2.059c1.876-1.78,6.345-6.503,7.313-11.898   c0.765-4.264-1.494-8.644-6.903-13.391c-6.704-5.883-13.595-10.726-19.928-14.006c-3.678-1.904-8.204-0.467-10.109,3.21   C239.392,330.791,240.83,335.317,244.508,337.222z" fill="#ffffff"/></g><path d="M347.853,257.817c-0.719-4.919-5.301-8.318-10.206-7.604c-4.919,0.719-8.323,5.288-7.604,10.206  l1.324,9.063c0.651,4.465-1.339,9.989-21.041,17.119L49.91,380.861c-3.37,1.222-6.79-1.024-8.529-2.473  c-4.49-3.738-7.187-9.822-6.412-14.465l12.123-72.608c13.034-2.188,22.996-13.551,22.996-27.197c0-0.014,0-0.028,0-0.043  c0-0.004,0-0.006,0-0.01c0-0.012,0-0.021,0-0.033c0-0.003,0-0.007,0-0.01c0-0.012,0-0.024,0-0.036c0-0.001,0-0.003,0-0.005  c-0.049-10.345-5.749-19.443-14.405-24.119L89.424,37.78c1.316-7.88,5.223-15.221,9.724-18.269c2.05-1.39,4.073-1.804,6.364-1.303  l177.755,38.777c6.242,1.362,14.463,4.762,18.172,13.226c1.994,4.553,7.3,6.628,11.855,4.631c4.553-1.995,6.626-7.303,4.631-11.855  c-5.269-12.023-16.215-20.4-30.822-23.587L109.349,0.622c-7.129-1.558-14.147-0.178-20.294,3.984  c-8.713,5.9-15.211,17.193-17.384,30.208L37.924,236.92c-13.031,2.19-22.992,13.553-22.992,27.197  c0,10.439,5.831,19.543,14.406,24.225l-12.125,72.617c-1.816,10.886,3.267,23.449,12.648,31.261  c5.537,4.611,11.81,7.003,18.011,7.002c2.759,0,5.505-0.474,8.163-1.436l260.416-94.26c9.891-3.579,36.165-13.087,32.726-36.646  L347.853,257.817z M42.51,254.539c5.25,0,9.526,4.245,9.577,9.483c0,0.001,0,0.002,0,0.003c0,0.009,0,0.017,0,0.025  c0,0.002,0,0.005,0,0.007c0,0.008,0,0.015,0,0.022c0,0.003,0,0.005,0,0.008c0,0.01,0,0.02,0,0.029c0,5.281-4.296,9.578-9.578,9.578  c-0.009,0-0.019,0-0.028,0c-0.01,0-0.019,0.001-0.028,0c-0.008-0.001-0.018-0.001-0.026,0c-0.007,0-0.014,0-0.022-0.001  c-0.206-0.002-0.412-0.011-0.618-0.026c-0.007,0.001-0.013-0.001-0.02-0.001c-4.936-0.381-8.835-4.519-8.835-9.55  C32.933,258.836,37.229,254.539,42.51,254.539z M333.587,88.3c-27.958,0-50.704,22.745-50.704,50.702  c0,12.949,9.938,35.084,25.976,66.604c0,0,5.733,11.319,6.021,11.92c2.314,4.852,6.621,13.883,18.708,13.883  c12.085,0,16.392-9.03,18.706-13.882c0.286-0.602,6.022-11.923,6.022-11.923c16.035-31.514,25.974-53.646,25.974-66.602  C384.289,111.045,361.544,88.3,333.587,88.3z M342.273,197.44c0,0-7.652,15.327-8.166,15.939c-0.293,0.556-0.934,0.337-1.04,0  c-0.515-0.612-8.166-15.938-8.166-15.938c-7.188-14.125-24.018-47.204-24.018-58.438c0-18.032,14.671-32.702,32.704-32.702  c18.032,0,32.702,14.67,32.702,32.702C366.289,150.243,349.459,183.317,342.273,197.44z M343.659,139.003c0,4.971-4.029,9-9,9  h-2.146c-4.971,0-9-4.029-9-9s4.029-9,9-9h2.146C339.629,130.003,343.659,134.033,343.659,139.003z" transform="matrix(0.07175229111806813 -0.07175229111806813 0.07175229111806813 0.07175229111806813 280.36287312031834 303.9912816651209)" id="L1_9" fill="#ffffff"/><g transform="matrix(0.07862565001853627 0.03744078490176217 -0.03744078490176217 0.07862565001853627 172.42738158711697 184.89652698116655)" id="L1_10"><path d="M192.25,311.107c2.1,0,4.17-0.86,5.66-2.35c1.49-1.49,2.34-3.55,2.34-5.65c0-2.11-0.85-4.17-2.34-5.66   c-1.49-1.49-3.56-2.34-5.66-2.34c-2.1,0-4.17,0.85-5.66,2.34c-1.49,1.49-2.34,3.55-2.34,5.66c0,2.1,0.85,4.16,2.34,5.65   C188.08,310.247,190.15,311.107,192.25,311.107z" fill="#ffffff"/><path d="M359.917,231.792h-79.458c-4.418,0-8,3.582-8,8v79.875c0,4.418,3.582,8,8,8h79.458c4.418,0,8-3.582,8-8v-79.875   C367.917,235.373,364.335,231.792,359.917,231.792z M288.458,247.792h23.729v63.875h-23.729V247.792z M351.917,311.667h-23.729   v-63.875h23.729V311.667z" fill="#ffffff"/><path d="M247.417,103.375h-79.333c-4.418,0-8,3.582-8,8v79.875c0,4.418,3.582,8,8,8h79.333c4.418,0,8-3.582,8-8v-79.875   C255.417,106.957,251.835,103.375,247.417,103.375z M176.083,119.375h23.667v63.875h-23.667V119.375z M239.417,183.25H215.75   v-63.875h23.667V183.25z" fill="#ffffff"/><path d="M359.917,103.375h-79.458c-4.418,0-8,3.582-8,8v79.875c0,4.418,3.582,8,8,8h79.458c4.418,0,8-3.582,8-8v-79.875   C367.917,106.957,364.335,103.375,359.917,103.375z M288.458,119.375h23.729v63.875h-23.729V119.375z M351.917,183.25h-23.729   v-63.875h23.729V183.25z" fill="#ffffff"/><path d="M135.917,231.792H56.458c-4.418,0-8,3.582-8,8v79.875c0,4.418,3.582,8,8,8h79.458c4.418,0,8-3.582,8-8v-79.875   C143.917,235.373,140.335,231.792,135.917,231.792z M64.458,247.792h23.729v63.875H64.458V247.792z M127.917,311.667h-23.729   v-63.875h23.729V311.667z" fill="#ffffff"/><path d="M135.917,103.375H56.458c-4.418,0-8,3.582-8,8v79.875c0,4.418,3.582,8,8,8h79.458c4.418,0,8-3.582,8-8v-79.875   C143.917,106.957,140.335,103.375,135.917,103.375z M64.458,119.375h23.729v63.875H64.458V119.375z M127.917,183.25h-23.729   v-63.875h23.729V183.25z" fill="#ffffff"/><path d="M407.5,359.917h-7.75V55.514c3.945-0.493,7-3.852,7-7.931c0-4.418-3.582-8-8-8H16.083c-4.418,0-8,3.582-8,8   c0,4.306,3.404,7.807,7.667,7.983v304.35H8c-4.418,0-8,3.582-8,8s3.582,8,8,8h399.5c4.418,0,8-3.582,8-8   S411.918,359.917,407.5,359.917z M31.75,55.583h352v304.333H255.417V239.792c0-4.418-3.582-8-8-8h-79.333c-4.418,0-8,3.582-8,8   v120.125H31.75V55.583z M239.417,359.917h-63.333V247.792h63.333V359.917z" fill="#ffffff"/><path d="M56.458,87.583h301.917c4.418,0,8-3.582,8-8s-3.582-8-8-8H56.458c-4.418,0-8,3.582-8,8S52.04,87.583,56.458,87.583z" fill="#ffffff"/></g><path d="M364.378,352.2c24.491-26.566,42.229-59.441,50.464-95.882c0.08-0.298,0.145-0.6,0.197-0.904  c3.238-14.629,4.96-29.822,4.96-45.411c0-15.585-1.721-30.774-4.957-45.4c-0.053-0.312-0.12-0.62-0.202-0.926  c-8.236-36.437-25.972-69.309-50.46-95.873c-0.514-0.723-1.12-1.376-1.808-1.941c-26.54-28.077-60.72-48.854-99.181-58.973  c-0.391-0.129-0.788-0.238-1.192-0.317c-16.697-4.287-34.189-6.57-52.205-6.57c-17.992,0-35.461,2.278-52.138,6.554  c-0.426,0.082-0.844,0.197-1.256,0.333c-38.46,10.119-72.639,30.896-99.178,58.974c-0.687,0.565-1.293,1.217-1.806,1.939  C31.13,94.369,13.394,127.242,5.158,163.681c-0.081,0.3-0.146,0.604-0.199,0.911C1.722,179.221,0,194.414,0,210.003  c0,15.592,1.723,30.786,4.961,45.417c0.052,0.302,0.116,0.601,0.196,0.896c8.235,36.441,25.972,69.316,50.461,95.882  c0.512,0.72,1.116,1.371,1.801,1.934c26.577,28.119,60.816,48.918,99.344,59.021c0.251,0.078,0.504,0.148,0.761,0.206  c16.777,4.331,34.359,6.637,52.47,6.637c18.116,0,35.703-2.306,52.484-6.64c0.255-0.058,0.507-0.127,0.757-0.205  c38.527-10.104,72.765-30.901,99.342-59.018C363.263,353.57,363.866,352.92,364.378,352.2z M124.396,362.532  c4.754,8.005,9.296,15.746,13.677,23.314c-16.157-6.633-31.208-15.423-44.785-26.023  C103.696,360.867,114.086,361.773,124.396,362.532z M124.472,342.477c-18.439-1.379-37.128-3.234-55.705-5.524  c-20.578-22.869-35.689-50.744-43.271-81.551c6.368-10.459,13.423-21.895,21.841-35.402h72.843  c2.993,5.081,5.988,10.165,9.005,15.282c9.124,15.475,18.523,31.424,27.792,47.309C144.455,304.941,133.767,324.633,124.472,342.477  z M20,210.003c0-5.097,0.208-10.146,0.604-15.143c2.951,4.773,6.068,9.794,9.399,15.14c-3.333,5.349-6.45,10.37-9.4,15.141  C20.208,220.145,20,215.098,20,210.003z M124.396,57.469c-10.311,0.759-20.7,1.664-31.106,2.708  c13.576-10.599,28.626-19.389,44.783-26.022C133.691,41.723,129.15,49.464,124.396,57.469z M68.769,83.047  c18.571-2.289,37.259-4.144,55.703-5.524c9.298,17.85,19.988,37.544,32.508,59.89c-9.268,15.883-18.672,31.831-27.795,47.305  c-3.014,5.111-6.018,10.206-9.007,15.282h-72.84c-8.405-13.485-15.461-24.921-21.841-35.4  C33.079,133.792,48.19,105.917,68.769,83.047z M174.282,272.565c-9.301-15.94-18.723-31.929-27.869-47.441  c-2.986-5.065-5.95-10.095-8.912-15.124c2.962-5.03,5.925-10.06,8.912-15.124c9.146-15.512,18.568-31.5,27.869-47.441  c23.736-0.339,47.699-0.339,71.435,0c9.305,15.946,18.73,31.939,27.878,47.456c2.983,5.06,5.943,10.085,8.902,15.109  c-2.959,5.024-5.919,10.05-8.902,15.109c-9.149,15.516-18.574,31.51-27.878,47.456C221.982,272.904,198.02,272.904,174.282,272.565z   M295.604,57.469c-4.753-8.004-9.294-15.744-13.675-23.31c16.154,6.632,31.202,15.421,44.776,26.018  C316.302,59.133,305.914,58.227,295.604,57.469z M295.529,77.523c18.443,1.38,37.13,3.234,55.7,5.523  c20.58,22.87,35.692,50.746,43.275,81.554c-6.381,10.481-13.436,21.917-21.84,35.4h-72.841c-2.986-5.071-5.988-10.161-8.999-15.267  c-9.125-15.477-18.533-31.432-27.804-47.32C275.546,115.059,286.234,95.367,295.529,77.523z M400,210.003  c0,5.095-0.208,10.142-0.603,15.137c-2.951-4.773-6.068-9.794-9.399-15.14c3.331-5.345,6.448-10.366,9.399-15.139  C399.792,199.857,400,204.906,400,210.003z M290.824,235.267c3.015-5.113,6.006-10.191,8.996-15.267h72.843  c8.407,13.488,15.462,24.924,21.841,35.401c-7.583,30.808-22.694,58.683-43.274,81.553c-18.566,2.289-37.253,4.143-55.701,5.524  c-9.292-17.838-19.979-37.53-32.505-59.886C272.296,266.701,281.698,250.747,290.824,235.267z M295.604,362.531  c10.311-0.758,20.7-1.664,31.103-2.707c-13.575,10.597-28.623,19.386-44.778,26.019  C286.312,378.272,290.853,370.533,295.604,362.531z M253.697,25.083c7.681,13.589,15.761,27.518,24.551,42.323  c-9.277,17.838-19.981,37.57-32.561,60.027c-23.717-0.336-47.656-0.336-71.373,0c-12.577-22.45-23.28-42.183-32.561-60.027  c8.79-14.804,16.87-28.734,24.552-42.325c14.033-3.315,28.659-5.078,43.691-5.078C225.03,20.003,239.66,21.767,253.697,25.083z   M166.304,394.919c-7.682-13.59-15.762-27.52-24.552-42.325c9.276-17.835,19.976-37.561,32.551-60.009  c23.717,0.336,47.678,0.336,71.393,0c12.58,22.456,23.279,42.181,32.551,60.009c-8.784,14.795-16.864,28.724-24.551,42.323  c-14.037,3.317-28.667,5.08-43.702,5.08C194.963,399.997,180.337,398.234,166.304,394.919z" transform="matrix(0.07744576593990449 -0.033672072144370915 0.033672072144370915 0.07744576593990449 276.6652407661939 175.80747691795574)" id="L1_11" fill="#ffffff"/><g transform="matrix(0.06554429242221164 0.01139900694937447 -0.01139900694937447 0.06554429242221164 160.13877438073158 -3.6975493328550257)" id="L1_12"><path d="M480.702,414.036c-10.786-15.798-25.827-26.765-43.499-31.716c-0.172-0.048-0.346-0.091-0.521-0.127l-63.819-13.349   l-17.178-26.048c-0.088-0.135-0.182-0.267-0.278-0.396c-2.603-3.471-6.565-5.761-10.872-6.283c-4.304-0.521-8.702,0.753-12.06,3.5   c-0.051,0.042-0.103,0.085-0.153,0.129l-76.322,65.698l-76.322-65.698c-0.051-0.044-0.102-0.087-0.153-0.129   c-3.358-2.748-7.755-4.022-12.06-3.5c-4.307,0.522-8.27,2.813-10.872,6.283c-0.097,0.129-0.19,0.261-0.278,0.396l-17.178,26.048   l-63.819,13.349c-0.175,0.036-0.349,0.079-0.521,0.127c-17.671,4.951-32.713,15.918-43.499,31.716   c-9.865,14.45-15.298,31.89-15.298,49.107v19.842c0,15.999,14.355,29.015,32,29.015h183.979c0.01,0,0.02,0.001,0.03,0.001   c0.011,0,0.022-0.001,0.033-0.001h47.917c0.011,0,0.022,0.001,0.033,0.001c0.01,0,0.02-0.001,0.03-0.001h183.979   c17.645,0,32-13.016,32-29.015v-19.842C496.001,445.926,490.568,428.486,480.702,414.036z M342.598,352.012l15.672,23.766   l-55.233,75.945l-17.378-17.377c-0.001-0.001-0.003-0.002-0.004-0.004l-17.902-17.902L342.598,352.012z M248.001,472h16   c0.481,0,0.958-0.019,1.432-0.046L270.242,496h-28.483l4.809-24.046C247.043,471.981,247.52,472,248.001,472z M272.001,448   c0,4.411-3.589,8-8,8h-16c-4.411,0-8-3.589-8-8v-4.687l16-16l16,16V448z M169.403,352.012l74.845,64.427l-17.902,17.902   c-0.001,0.001-0.003,0.002-0.004,0.004l-17.378,17.377l-55.233-75.945L169.403,352.012z M32.001,482.985v-19.842   c0-25.879,16.095-56.585,46.863-65.346l61.71-12.908l60.957,83.815c1.376,1.893,3.511,3.087,5.844,3.271   c0.209,0.017,0.418,0.024,0.626,0.024c2.113,0,4.15-0.837,5.656-2.343l12.261-12.261c1.309,3.065,3.242,5.801,5.634,8.057   L225.442,496H48.001C39.178,496,32.001,490.162,32.001,482.985z M480.001,482.985c0,7.176-7.178,13.015-16,13.015H286.559   l-6.109-30.547c2.391-2.255,4.324-4.991,5.634-8.057l12.261,12.261C299.85,471.163,301.887,472,304,472   c0.208,0,0.417-0.008,0.626-0.024c2.333-0.183,4.468-1.378,5.844-3.271l60.957-83.815l61.71,12.908   c30.768,8.76,46.863,39.467,46.863,65.346V482.985z" fill="#ffffff"/><path d="M200.001,276.665V312c0,15.176,10.623,27.91,24.822,31.178C228.091,357.376,240.824,368,256.001,368   s27.91-10.624,31.178-24.822c14.199-3.268,24.822-16.002,24.822-31.178v-35.335c51.665-21.891,88-73.115,88-132.665   c0-79.402-64.598-144-144-144s-144,64.598-144,144C112.001,203.55,148.336,254.774,200.001,276.665z M256.001,352   c-5.907,0-11.063-3.226-13.835-8h27.67C267.064,348.774,261.907,352,256.001,352z M296.001,312c0,8.822-7.178,16-16,16h-48   c-8.822,0-16-7.178-16-16v-29.658c12.705,3.679,26.125,5.658,40,5.658s27.295-1.979,40-5.658V312z M239.731,269.938l-23.911-89.658   c3.295,1.862,7.728,3.719,14.551,3.719c8.689,0,13.51-3.011,17.031-5.209c2.776-1.734,4.452-2.78,8.555-2.78   c4.117,0,5.797,1.048,8.581,2.783c3.524,2.197,8.35,5.206,17.046,5.206c6.855,0,11.3-1.87,14.603-3.738l-23.916,89.676   c-0.094,0.352-0.154,0.704-0.199,1.055c-5.266,0.663-10.629,1.006-16.071,1.006s-10.806-0.344-16.071-1.006   C239.884,270.642,239.824,270.29,239.731,269.938z M256.001,16c70.58,0,128,57.421,128,128c0,59.004-40.134,108.802-94.534,123.553   l30.264-113.48c1.138-4.269-1.399-8.653-5.668-9.791c-4.27-1.14-8.652,1.399-9.792,5.668l-2.814,10.553   c-5.237,0.942-8.636,3.059-11.293,4.715c-2.783,1.735-4.463,2.783-8.581,2.783s-5.797-1.048-8.581-2.783   c-3.524-2.197-8.35-5.206-17.046-5.206c-8.689,0-13.51,3.011-17.031,5.209c-2.776,1.734-4.452,2.78-8.555,2.78   c-4.102,0-5.776-1.046-8.551-2.779c-2.652-1.657-6.045-3.774-11.274-4.717l-2.815-10.554c-1.139-4.269-5.522-6.809-9.792-5.668   c-4.269,1.138-6.807,5.522-5.668,9.791l30.264,113.48c-54.4-14.75-94.534-64.549-94.534-123.553   C128.001,73.421,185.421,16,256.001,16z" fill="#ffffff"/><path d="M292.962,55.371c23.146,9.665,41.971,28.479,51.648,51.619c1.283,3.068,4.254,4.916,7.384,4.916   c1.028,0,2.075-0.2,3.083-0.622c4.076-1.704,5.999-6.391,4.294-10.467c-11.288-26.991-33.246-48.938-60.244-60.211   c-4.078-1.702-8.762,0.223-10.465,4.3C286.959,48.983,288.885,53.668,292.962,55.371z" fill="#ffffff"/></g><path d="M37.206,2.05C35.894,0.737,34.113,0,32.256,0H7C3.134,0,0,3.134,0,7v404.089c0,3.866,3.134,7,7,7h404.089  c3.866,0,7-3.134,7-7v-25.255c0-1.856-0.737-3.637-2.05-4.95 M404.089,404.089H14V14h15.357l19.136,19.137l-5.151,5.151  c-2.734,2.734-2.734,7.166,0,9.899c2.733,2.733,7.166,2.733,9.899,0l5.151-5.151l22.45,22.45l-5.15,5.15  c-2.734,2.733-2.734,7.166-0.001,9.899c2.734,2.734,7.166,2.734,9.899,0.001l5.152-5.151l22.45,22.451l-5.15,5.149  c-2.734,2.734-2.734,7.166,0,9.9c2.734,2.733,7.167,2.734,9.9,0l5.15-5.15l22.451,22.451l-15.869,15.869  c-2.734,2.734-2.734,7.166,0,9.899c2.733,2.733,7.166,2.733,9.899,0l15.869-15.869l22.451,22.451l-5.15,5.15  c-2.734,2.734-2.734,7.166,0,9.899c2.734,2.734,7.166,2.733,9.899,0l5.15-5.15l22.449,22.449l-5.15,5.15  c-2.734,2.734-2.734,7.166,0,9.899c2.733,2.734,7.166,2.733,9.899,0l5.15-5.15l22.452,22.452l-5.151,5.15  c-2.733,2.734-2.734,7.166,0,9.9c2.735,2.733,7.166,2.734,9.9,0l5.151-5.15l22.451,22.451l-15.869,15.869  c-2.734,2.733-2.734,7.166,0,9.899c2.733,2.733,7.166,2.733,9.899,0l15.869-15.869l22.45,22.451l-5.15,5.149  c-2.734,2.733-2.734,7.166-0.001,9.899c2.734,2.734,7.166,2.735,9.899,0.001l5.151-5.15l22.449,22.449l-5.15,5.15  c-2.734,2.734-2.734,7.166,0,9.899c2.733,2.733,7.166,2.733,9.899,0l5.15-5.15l22.45,22.45l-5.15,5.15  c-2.734,2.733-2.734,7.166,0,9.899c2.733,2.733,7.166,2.733,9.899,0l5.15-5.15l22.199,22.199V404.089z M101.396,173.542  c-1.313-1.313-3.093-2.05-4.95-2.05h-9.343c-3.866,0-7,3.134-7,7v149.499c0,3.866,3.134,7,7,7h149.498c3.866,0,7-3.134,7-7v-9.344  c0-1.856-0.737-3.637-2.05-4.95L101.396,173.542z M94.104,320.991V186.048l134.942,134.943H94.104z" transform="matrix(0.09473200634324379 -0.03383285902516599 0.03383285902516599 0.09473200634324379 18.12355782651802 62.265692899037404)" id="L1_13" fill="#ffffff"/><g transform="matrix(0.06478258084489161 -0.052443040620514636 0.052443040620514636 0.06478258084489161 130.0488534920713 142.84724724915426)" id="L1_14"><path d="M471.5,56h-432C17.72,56,0,73.72,0,95.5v320C0,437.28,17.72,455,39.5,455h432c21.78,0,39.5-17.72,39.5-39.5v-320   C511,73.72,493.28,56,471.5,56z M39.5,71h432c13.509,0,24.5,10.991,24.5,24.5V120H15V95.5C15,81.991,25.991,71,39.5,71z M471.5,440   h-432C25.991,440,15,429.009,15,415.5V135h481v280.5C496,429.009,485.009,440,471.5,440z" fill="#ffffff"/><path d="M39.5,103c1.97,0,3.91-0.8,5.3-2.2c1.4-1.39,2.2-3.33,2.2-5.3s-0.8-3.91-2.2-5.3c-1.39-1.4-3.33-2.2-5.3-2.2   c-1.97,0-3.91,0.8-5.3,2.2c-1.4,1.39-2.2,3.33-2.2,5.3s0.8,3.91,2.2,5.3C35.59,102.2,37.53,103,39.5,103z" fill="#ffffff"/><path d="M63.5,103c1.97,0,3.91-0.8,5.3-2.2c1.4-1.39,2.2-3.33,2.2-5.3s-0.8-3.91-2.2-5.3c-1.39-1.4-3.33-2.2-5.3-2.2   c-1.97,0-3.91,0.8-5.3,2.2c-1.4,1.39-2.2,3.33-2.2,5.3s0.8,3.91,2.2,5.3C59.59,102.2,61.53,103,63.5,103z" fill="#ffffff"/><path d="M87.5,103c1.97,0,3.91-0.8,5.3-2.2c1.4-1.39,2.2-3.33,2.2-5.3s-0.8-3.91-2.2-5.3c-1.39-1.4-3.33-2.2-5.3-2.2   c-1.97,0-3.91,0.8-5.3,2.2c-1.4,1.39-2.2,3.33-2.2,5.3s0.8,3.91,2.2,5.3C83.59,102.2,85.53,103,87.5,103z" fill="#ffffff"/><path d="M289.774,192.353c-3.945-1.255-8.165,0.926-9.421,4.873l-56,176c-1.256,3.947,0.926,8.165,4.873,9.421   c0.756,0.241,1.522,0.355,2.276,0.355c3.179,0,6.13-2.037,7.145-5.228l56-176C295.903,197.827,293.721,193.609,289.774,192.353z" fill="#ffffff"/><path d="M324.803,210.197c-2.929-2.929-7.678-2.929-10.606,0c-2.929,2.929-2.929,7.677,0,10.606l66.697,66.697l-66.697,66.697   c-2.929,2.929-2.929,7.677,0,10.606c1.464,1.464,3.384,2.197,5.303,2.197s3.839-0.732,5.303-2.197l72-72   c2.929-2.929,2.929-7.677,0-10.606L324.803,210.197z" fill="#ffffff"/><path d="M204.803,210.197c-2.929-2.929-7.678-2.929-10.606,0l-72,72c-2.929,2.929-2.929,7.677,0,10.606l72,72   c1.464,1.464,3.384,2.197,5.303,2.197s3.839-0.732,5.303-2.197c2.929-2.929,2.929-7.677,0-10.606L138.106,287.5l66.697-66.697   C207.732,217.874,207.732,213.126,204.803,210.197z" fill="#ffffff"/><path d="M119.5,103h304c4.142,0,7.5-3.358,7.5-7.5s-3.358-7.5-7.5-7.5h-304c-4.142,0-7.5,3.358-7.5,7.5S115.358,103,119.5,103z" fill="#ffffff"/><path d="M455.5,103h16c4.142,0,7.5-3.358,7.5-7.5s-3.358-7.5-7.5-7.5h-16c-4.142,0-7.5,3.358-7.5,7.5S451.358,103,455.5,103z" fill="#ffffff"/></g><g transform="matrix(0.09327791631221771 0 0 0.09327791631221771 203.07968959212303 283.07968959212303)" id="L1_15"><path d="m462.5,197.5c4.143,0 7.5-3.358 7.5-7.5s-3.357-7.5-7.5-7.5c-96.495,0-175-78.505-175-175 0-4.142-3.357-7.5-7.5-7.5s-7.5,3.358-7.5,7.5c0,104.767 85.233,190 190,190z" fill="#ffffff"/><path d="m7.5,272.5c-4.143,0-7.5,3.358-7.5,7.5s3.357,7.5 7.5,7.5c96.495,0 175,78.505 175,175 0,4.142 3.357,7.5 7.5,7.5s7.5-3.358 7.5-7.5c0-104.767-85.233-190-190-190z" fill="#ffffff"/><path d="M250,318.333c4.143,0,7.5-3.358,7.5-7.5s-3.357-7.5-7.5-7.5h-7.5V166.667h7.5c4.143,0,7.5-3.358,7.5-7.5   s-3.357-7.5-7.5-7.5h-7.5V90.833h7.5c4.143,0,7.5-3.358,7.5-7.5s-3.357-7.5-7.5-7.5h-7.5V15h7.5c4.143,0,7.5-3.358,7.5-7.5   S254.143,0,250,0h-30c-4.143,0-7.5,3.358-7.5,7.5s3.357,7.5,7.5,7.5h7.5v60.833H220c-4.143,0-7.5,3.358-7.5,7.5s3.357,7.5,7.5,7.5   h7.5v60.833H220c-4.143,0-7.5,3.358-7.5,7.5s3.357,7.5,7.5,7.5h7.5V227.5h-60.833V220c0-4.142-3.357-7.5-7.5-7.5   s-7.5,3.358-7.5,7.5v7.5H90.833V220c0-4.142-3.357-7.5-7.5-7.5s-7.5,3.358-7.5,7.5v7.5H15V220c0-4.142-3.357-7.5-7.5-7.5   S0,215.858,0,220v30c0,4.142,3.357,7.5,7.5,7.5s7.5-3.358,7.5-7.5v-7.5h60.833v7.5c0,4.142,3.357,7.5,7.5,7.5s7.5-3.358,7.5-7.5   v-7.5h60.834v7.5c0,4.142,3.357,7.5,7.5,7.5s7.5-3.358,7.5-7.5v-7.5H227.5v60.833H220c-4.143,0-7.5,3.358-7.5,7.5   s3.357,7.5,7.5,7.5h7.5v60.833H220c-4.143,0-7.5,3.358-7.5,7.5s3.357,7.5,7.5,7.5h7.5V455H220c-4.143,0-7.5,3.358-7.5,7.5   s3.357,7.5,7.5,7.5h30c4.143,0,7.5-3.358,7.5-7.5s-3.357-7.5-7.5-7.5h-7.5v-60.833h7.5c4.143,0,7.5-3.358,7.5-7.5   s-3.357-7.5-7.5-7.5h-7.5v-60.833H250z" fill="#ffffff"/><path d="m462.5,212.5c-4.143,0-7.5,3.358-7.5,7.5v7.5h-60.833v-7.5c0-4.142-3.357-7.5-7.5-7.5s-7.5,3.358-7.5,7.5v7.5h-60.834v-7.5c0-4.142-3.357-7.5-7.5-7.5s-7.5,3.358-7.5,7.5v7.5h-38.333c-4.143,0-7.5,3.358-7.5,7.5s3.357,7.5 7.5,7.5h38.333v7.5c0,4.142 3.357,7.5 7.5,7.5s7.5-3.358 7.5-7.5v-7.5h60.834v7.5c0,4.142 3.357,7.5 7.5,7.5s7.5-3.358 7.5-7.5v-7.5h60.833v7.5c0,4.142 3.357,7.5 7.5,7.5s7.5-3.358 7.5-7.5v-30c0-4.142-3.357-7.5-7.5-7.5z" fill="#ffffff"/></g></defs><g fi:class="KUsePattern"><pattern id="pattern_L1_0" width="350" height="350" patternUnits="userSpaceOnUse"><use xlink:href="#L1_0" x="-350" y="-350"/><use xlink:href="#L1_0" x="0" y="-350"/><use xlink:href="#L1_0" x="350" y="-350"/><use xlink:href="#L1_0" x="-350" y="0"/><use xlink:href="#L1_0" x="0" y="0"/><use xlink:href="#L1_0" x="350" y="0"/><use xlink:href="#L1_0" x="-350" y="350"/><use xlink:href="#L1_0" x="0" y="350"/><use xlink:href="#L1_0" x="350" y="350"/></pattern><rect x="0" y="0" width="100%" height="100%" fill="url(#pattern_L1_0)"/></g><g fi:class="KUsePattern"><pattern id="pattern_L1_1" width="350" height="350" patternUnits="userSpaceOnUse"><use xlink:href="#L1_1" x="-350" y="-350"/><use xlink:href="#L1_1" x="0" y="-350"/><use xlink:href="#L1_1" x="350" y="-350"/><use xlink:href="#L1_1" x="-350" y="0"/><use xlink:href="#L1_1" x="0" y="0"/><use xlink:href="#L1_1" x="350" y="0"/><use xlink:href="#L1_1" x="-350" y="350"/><use xlink:href="#L1_1" x="0" y="350"/><use xlink:href="#L1_1" x="350" y="350"/></pattern><rect x="0" y="0" width="100%" height="100%" fill="url(#pattern_L1_1)"/></g><g fi:class="KUsePattern"><pattern id="pattern_L1_2" width="350" height="350" patternUnits="userSpaceOnUse"><use xlink:href="#L1_2" x="-350" y="-350"/><use xlink:href="#L1_2" x="0" y="-350"/><use xlink:href="#L1_2" x="350" y="-350"/><use xlink:href="#L1_2" x="-350" y="0"/><use xlink:href="#L1_2" x="0" y="0"/><use xlink:href="#L1_2" x="350" y="0"/><use xlink:href="#L1_2" x="-350" y="350"/><use xlink:href="#L1_2" x="0" y="350"/><use xlink:href="#L1_2" x="350" y="350"/></pattern><rect x="0" y="0" width="100%" height="100%" fill="url(#pattern_L1_2)"/></g><g fi:class="KUsePattern"><pattern id="pattern_L1_3" width="350" height="350" patternUnits="userSpaceOnUse"><use xlink:href="#L1_3" x="-350" y="-350"/><use xlink:href="#L1_3" x="0" y="-350"/><use xlink:href="#L1_3" x="350" y="-350"/><use xlink:href="#L1_3" x="-350" y="0"/><use xlink:href="#L1_3" x="0" y="0"/><use xlink:href="#L1_3" x="350" y="0"/><use xlink:href="#L1_3" x="-350" y="350"/><use xlink:href="#L1_3" x="0" y="350"/><use xlink:href="#L1_3" x="350" y="350"/></pattern><rect x="0" y="0" width="100%" height="100%" fill="url(#pattern_L1_3)"/></g><g fi:class="KUsePattern"><pattern id="pattern_L1_4" width="350" height="350" patternUnits="userSpaceOnUse"><use xlink:href="#L1_4" x="-350" y="-350"/><use xlink:href="#L1_4" x="0" y="-350"/><use xlink:href="#L1_4" x="350" y="-350"/><use xlink:href="#L1_4" x="-350" y="0"/><use xlink:href="#L1_4" x="0" y="0"/><use xlink:href="#L1_4" x="350" y="0"/><use xlink:href="#L1_4" x="-350" y="350"/><use xlink:href="#L1_4" x="0" y="350"/><use xlink:href="#L1_4" x="350" y="350"/></pattern><rect x="0" y="0" width="100%" height="100%" fill="url(#pattern_L1_4)"/></g><g fi:class="KUsePattern"><pattern id="pattern_L1_5" width="350" height="350" patternUnits="userSpaceOnUse"><use xlink:href="#L1_5" x="-350" y="-350"/><use xlink:href="#L1_5" x="0" y="-350"/><use xlink:href="#L1_5" x="350" y="-350"/><use xlink:href="#L1_5" x="-350" y="0"/><use xlink:href="#L1_5" x="0" y="0"/><use xlink:href="#L1_5" x="350" y="0"/><use xlink:href="#L1_5" x="-350" y="350"/><use xlink:href="#L1_5" x="0" y="350"/><use xlink:href="#L1_5" x="350" y="350"/></pattern><rect x="0" y="0" width="100%" height="100%" fill="url(#pattern_L1_5)"/></g><g fi:class="KUsePattern"><pattern id="pattern_L1_6" width="350" height="350" patternUnits="userSpaceOnUse"><use xlink:href="#L1_6" x="-350" y="-350"/><use xlink:href="#L1_6" x="0" y="-350"/><use xlink:href="#L1_6" x="350" y="-350"/><use xlink:href="#L1_6" x="-350" y="0"/><use xlink:href="#L1_6" x="0" y="0"/><use xlink:href="#L1_6" x="350" y="0"/><use xlink:href="#L1_6" x="-350" y="350"/><use xlink:href="#L1_6" x="0" y="350"/><use xlink:href="#L1_6" x="350" y="350"/></pattern><rect x="0" y="0" width="100%" height="100%" fill="url(#pattern_L1_6)"/></g><g fi:class="KUsePattern"><pattern id="pattern_L1_7" width="350" height="350" patternUnits="userSpaceOnUse"><use xlink:href="#L1_7" x="-350" y="-350"/><use xlink:href="#L1_7" x="0" y="-350"/><use xlink:href="#L1_7" x="350" y="-350"/><use xlink:href="#L1_7" x="-350" y="0"/><use xlink:href="#L1_7" x="0" y="0"/><use xlink:href="#L1_7" x="350" y="0"/><use xlink:href="#L1_7" x="-350" y="350"/><use xlink:href="#L1_7" x="0" y="350"/><use xlink:href="#L1_7" x="350" y="350"/></pattern><rect x="0" y="0" width="100%" height="100%" fill="url(#pattern_L1_7)"/></g><g fi:class="KUsePattern"><pattern id="pattern_L1_8" width="350" height="350" patternUnits="userSpaceOnUse"><use xlink:href="#L1_8" x="-350" y="-350"/><use xlink:href="#L1_8" x="0" y="-350"/><use xlink:href="#L1_8" x="350" y="-350"/><use xlink:href="#L1_8" x="-350" y="0"/><use xlink:href="#L1_8" x="0" y="0"/><use xlink:href="#L1_8" x="350" y="0"/><use xlink:href="#L1_8" x="-350" y="350"/><use xlink:href="#L1_8" x="0" y="350"/><use xlink:href="#L1_8" x="350" y="350"/></pattern><rect x="0" y="0" width="100%" height="100%" fill="url(#pattern_L1_8)"/></g><g fi:class="KUsePattern"><pattern id="pattern_L1_9" width="350" height="350" patternUnits="userSpaceOnUse"><use xlink:href="#L1_9" x="-350" y="-350"/><use xlink:href="#L1_9" x="0" y="-350"/><use xlink:href="#L1_9" x="350" y="-350"/><use xlink:href="#L1_9" x="-350" y="0"/><use xlink:href="#L1_9" x="0" y="0"/><use xlink:href="#L1_9" x="350" y="0"/><use xlink:href="#L1_9" x="-350" y="350"/><use xlink:href="#L1_9" x="0" y="350"/><use xlink:href="#L1_9" x="350" y="350"/></pattern><rect x="0" y="0" width="100%" height="100%" fill="url(#pattern_L1_9)"/></g><g fi:class="KUsePattern"><pattern id="pattern_L1_10" width="350" height="350" patternUnits="userSpaceOnUse"><use xlink:href="#L1_10" x="-350" y="-350"/><use xlink:href="#L1_10" x="0" y="-350"/><use xlink:href="#L1_10" x="350" y="-350"/><use xlink:href="#L1_10" x="-350" y="0"/><use xlink:href="#L1_10" x="0" y="0"/><use xlink:href="#L1_10" x="350" y="0"/><use xlink:href="#L1_10" x="-350" y="350"/><use xlink:href="#L1_10" x="0" y="350"/><use xlink:href="#L1_10" x="350" y="350"/></pattern><rect x="0" y="0" width="100%" height="100%" fill="url(#pattern_L1_10)"/></g><g fi:class="KUsePattern"><pattern id="pattern_L1_11" width="350" height="350" patternUnits="userSpaceOnUse"><use xlink:href="#L1_11" x="-350" y="-350"/><use xlink:href="#L1_11" x="0" y="-350"/><use xlink:href="#L1_11" x="350" y="-350"/><use xlink:href="#L1_11" x="-350" y="0"/><use xlink:href="#L1_11" x="0" y="0"/><use xlink:href="#L1_11" x="350" y="0"/><use xlink:href="#L1_11" x="-350" y="350"/><use xlink:href="#L1_11" x="0" y="350"/><use xlink:href="#L1_11" x="350" y="350"/></pattern><rect x="0" y="0" width="100%" height="100%" fill="url(#pattern_L1_11)"/></g><g fi:class="KUsePattern"><pattern id="pattern_L1_12" width="350" height="350" patternUnits="userSpaceOnUse"><use xlink:href="#L1_12" x="-350" y="-350"/><use xlink:href="#L1_12" x="0" y="-350"/><use xlink:href="#L1_12" x="350" y="-350"/><use xlink:href="#L1_12" x="-350" y="0"/><use xlink:href="#L1_12" x="0" y="0"/><use xlink:href="#L1_12" x="350" y="0"/><use xlink:href="#L1_12" x="-350" y="350"/><use xlink:href="#L1_12" x="0" y="350"/><use xlink:href="#L1_12" x="350" y="350"/></pattern><rect x="0" y="0" width="100%" height="100%" fill="url(#pattern_L1_12)"/></g><g fi:class="KUsePattern"><pattern id="pattern_L1_13" width="350" height="350" patternUnits="userSpaceOnUse"><use xlink:href="#L1_13" x="-350" y="-350"/><use xlink:href="#L1_13" x="0" y="-350"/><use xlink:href="#L1_13" x="350" y="-350"/><use xlink:href="#L1_13" x="-350" y="0"/><use xlink:href="#L1_13" x="0" y="0"/><use xlink:href="#L1_13" x="350" y="0"/><use xlink:href="#L1_13" x="-350" y="350"/><use xlink:href="#L1_13" x="0" y="350"/><use xlink:href="#L1_13" x="350" y="350"/></pattern><rect x="0" y="0" width="100%" height="100%" fill="url(#pattern_L1_13)"/></g><g fi:class="KUsePattern"><pattern id="pattern_L1_14" width="350" height="350" patternUnits="userSpaceOnUse"><use xlink:href="#L1_14" x="-350" y="-350"/><use xlink:href="#L1_14" x="0" y="-350"/><use xlink:href="#L1_14" x="350" y="-350"/><use xlink:href="#L1_14" x="-350" y="0"/><use xlink:href="#L1_14" x="0" y="0"/><use xlink:href="#L1_14" x="350" y="0"/><use xlink:href="#L1_14" x="-350" y="350"/><use xlink:href="#L1_14" x="0" y="350"/><use xlink:href="#L1_14" x="350" y="350"/></pattern><rect x="0" y="0" width="100%" height="100%" fill="url(#pattern_L1_14)"/></g><g fi:class="KUsePattern"><pattern id="pattern_L1_15" width="350" height="350" patternUnits="userSpaceOnUse"><use xlink:href="#L1_15" x="-350" y="-350"/><use xlink:href="#L1_15" x="0" y="-350"/><use xlink:href="#L1_15" x="350" y="-350"/><use xlink:href="#L1_15" x="-350" y="0"/><use xlink:href="#L1_15" x="0" y="0"/><use xlink:href="#L1_15" x="350" y="0"/><use xlink:href="#L1_15" x="-350" y="350"/><use xlink:href="#L1_15" x="0" y="350"/><use xlink:href="#L1_15" x="350" y="350"/></pattern><rect x="0" y="0" width="100%" height="100%" fill="url(#pattern_L1_15)"/></g></svg>